<?xml version="1.0" encoding="utf-8"?>
<!-- Generator: $$$/GeneralStr/196=Adobe Illustrator 27.6.0, SVG Export Plug-In . SVG Version: 6.00 Build 0)  -->
<svg version="1.1" id="Calque_1" xmlns="http://www.w3.org/2000/svg" xmlns:xlink="http://www.w3.org/1999/xlink" x="0px" y="0px"
	 viewBox="0 0 40 40" style="enable-background:new 0 0 40 40;" xml:space="preserve">
<g>
	<path d="M28.2,12.7H11.8c-0.4,0-0.8,0.2-1.1,0.5h-0.1l-0.1,0.1c-0.3,0.4-0.5,0.8-0.5,1.2v11.2c0,0.2,0.1,0.5,0.1,0.6
		c0.1,0.2,0.2,0.4,0.4,0.6c0,0,0,0.1,0.1,0.1c0.1,0.1,0.2,0.2,0.3,0.2c0.3,0.2,0.6,0.3,0.9,0.3h16.4c0.3,0,0.5-0.1,0.7-0.2
		c0.2-0.1,0.3-0.1,0.4-0.2c0-0.1,0.1-0.1,0.1-0.1c0.2-0.2,0.3-0.4,0.4-0.6c0.1-0.2,0.2-0.4,0.2-0.7V14.4c0-0.5-0.2-0.9-0.5-1.2
		S28.7,12.7,28.2,12.7z M11.5,15.1l5.1,5.4l-5.1,4.7C11.5,25.2,11.5,15.1,11.5,15.1z M20.1,22.2l-1.9-2c0-0.1-0.1-0.1-0.1-0.1
		c-0.1-0.1-0.1-0.1-0.1-0.1l-5.6-5.9h15.3L20.1,22.2z M17.6,21.5l2,2.2c0.1,0.1,0.2,0.1,0.2,0.2c0.1,0.1,0.2,0.1,0.3,0.1
		c0.1,0,0.2,0,0.3-0.1c0.1-0.1,0.2-0.1,0.2-0.2l1.9-2.1l4.8,4.3H12.7L17.6,21.5z M23.4,20.6l5.2-5.4v10.1L23.4,20.6z"/>
	<path d="M20,17.5c-1.1,0-2.1,0.5-2.1,1c0,0.6,1,1,2.1,1c1.2,0,2.1-0.5,2.1-1C22.1,17.9,21.2,17.5,20,17.5z"/>
</g>
</svg>
