<?xml version="1.0" encoding="utf-8"?>
<!-- Generator: $$$/GeneralStr/196=Adobe Illustrator 27.6.0, SVG Export Plug-In . SVG Version: 6.00 Build 0)  -->
<svg version="1.1" id="Calque_1" xmlns="http://www.w3.org/2000/svg" xmlns:xlink="http://www.w3.org/1999/xlink" x="0px" y="0px"
	 viewBox="0 0 40 40" style="enable-background:new 0 0 40 40;" xml:space="preserve">
<style type="text/css">
	.st0{fill:#FFFFFF;}
</style>
<g>
	<path class="st0" d="M14.3,16.2c1,0,1.8-0.8,1.8-1.8s-0.8-1.8-1.8-1.8c-1,0-1.8,0.8-1.8,1.8S13.3,16.2,14.3,16.2z"/>
	<path class="st0" d="M15.9,17.5h-3.1v10h3.1V17.5z"/>
	<path class="st0" d="M20.8,22.3c0-1.4,0.6-2.2,1.9-2.2c1.1,0,1.7,0.8,1.7,2.2v5.2h3.1v-6.3c0-2.7-1.5-4-3.6-4c-2.1,0-3,1.7-3,1.7
		v-1.3h-3v10h3L20.8,22.3L20.8,22.3z"/>
</g>
</svg>
