<?xml version="1.0" encoding="utf-8"?>
<!-- Generator: $$$/GeneralStr/196=Adobe Illustrator 27.6.0, SVG Export Plug-In . SVG Version: 6.00 Build 0)  -->
<svg version="1.1" id="Calque_1" xmlns="http://www.w3.org/2000/svg" xmlns:xlink="http://www.w3.org/1999/xlink" x="0px" y="0px"
	 viewBox="0 0 40 40" style="enable-background:new 0 0 40 40;" xml:space="preserve">
<style type="text/css">
	.st0{fill:#FFFFFF;}
</style>
<path class="st0" d="M25.3,15.4c-0.1-0.1-0.2-0.1-0.3-0.2c-0.3-0.2-0.6-0.4-0.8-0.7c-0.6-0.7-0.8-1.4-0.9-1.9h0
	c-0.1-0.4,0-0.7,0-0.7h-2.8v10.7c0,0.1,0,0.3,0,0.4c0,0,0,0,0,0.1c0,0,0,0,0,0c0,0,0,0,0,0c0,0.4-0.2,0.8-0.4,1.1
	c-0.2,0.3-0.5,0.6-0.8,0.8c-0.3,0.2-0.7,0.3-1.1,0.3c-1.3,0-2.3-1.1-2.3-2.4c0-1.3,1-2.4,2.3-2.4c0.2,0,0.5,0,0.7,0.1l0-2.8
	c-0.7-0.1-1.4,0-2.1,0.2c-0.7,0.2-1.3,0.5-1.9,1c-0.5,0.4-0.9,0.9-1.2,1.5c-0.1,0.2-0.6,1-0.6,2.3c0,0.7,0.2,1.5,0.3,1.8v0
	c0.1,0.2,0.3,0.8,0.8,1.4c0.3,0.4,0.7,0.8,1.2,1.1v0l0,0c1.3,0.9,2.8,0.9,2.8,0.9c0.3,0,1.1,0,2.1-0.5c1.1-0.5,1.7-1.3,1.7-1.3
	c0.4-0.5,0.7-1,0.9-1.5c0.3-0.7,0.3-1.5,0.3-1.8v-5.7c0,0,0.5,0.3,0.5,0.3s0.6,0.4,1.7,0.7c0.7,0.2,1.7,0.2,1.7,0.2v-2.8
	C26.7,15.8,26,15.7,25.3,15.4z"/>
</svg>
