<?xml version="1.0" encoding="utf-8"?>
<!-- Generator: $$$/GeneralStr/196=Adobe Illustrator 27.6.0, SVG Export Plug-In . SVG Version: 6.00 Build 0)  -->
<svg version="1.1" id="Calque_1" xmlns="http://www.w3.org/2000/svg" xmlns:xlink="http://www.w3.org/1999/xlink" x="0px" y="0px"
	 viewBox="0 0 40 40" style="enable-background:new 0 0 40 40;" xml:space="preserve">
<g>
	<path d="M8.9,31.1c0.2-0.8,0.5-1.5,0.8-2.3c0.4-1.1,0.7-2.2,1.1-3.2c0.1-0.1,0-0.3-0.1-0.5c-3.6-6.5,0-14.4,7.3-15.9
		c6-1.2,11.9,2.7,12.9,8.7c0.9,5.9-2.9,11.4-8.8,12.4c-2.4,0.5-4.7,0.1-6.9-1c-0.2-0.1-0.4-0.1-0.6-0.1c-1.8,0.6-3.6,1.1-5.3,1.7
		C9.2,31,9.2,31,8.9,31.1z M11.7,28.4c0.2-0.1,0.3-0.1,0.4-0.1c0.9-0.3,1.8-0.7,2.8-0.9c0.1-0.1,0.3,0,0.5,0.1
		c2.2,1.2,4.5,1.7,7,1.1c4.7-1.1,7.8-5.8,6.8-10.5c-0.9-4.9-5.6-8.1-10.5-7.2c-6.5,1.1-9.7,8.5-6,13.9c0.1,0.2,0.1,0.4,0.1,0.7
		C12.4,26.4,12.1,27.3,11.7,28.4L11.7,28.4z"/>
	<path d="M14.6,17.4c0.1-0.8,0.3-1.4,0.8-1.9c0.4-0.5,0.9-0.5,1.5-0.5c0.1,0,0.3,0.2,0.4,0.3c0.3,0.7,0.7,1.5,0.9,2.2
		c0.1,0.1,0,0.3-0.1,0.5c-0.2,0.3-0.4,0.6-0.6,0.8c-0.2,0.2-0.2,0.5-0.1,0.7c0.9,1.4,2.1,2.5,3.6,3.1c0.2,0.1,0.4,0.1,0.6-0.1
		c0.2-0.3,0.5-0.7,0.8-0.9c0.2-0.2,0.3-0.3,0.6-0.2c0.8,0.3,1.5,0.7,2.3,1.1c0.1,0.1,0.2,0.3,0.2,0.5c-0.1,1.1-0.8,1.9-1.9,2.2
		c-0.7,0.1-1.1,0.1-1.8-0.1c-2.5-0.7-4.4-2.2-5.9-4.3c-0.5-0.7-0.9-1.4-1.1-2.3C14.6,17.8,14.6,17.5,14.6,17.4L14.6,17.4z"/>
</g>
</svg>
