<?xml version="1.0" encoding="utf-8"?>
<!-- Generator: $$$/GeneralStr/196=Adobe Illustrator 27.6.0, SVG Export Plug-In . SVG Version: 6.00 Build 0)  -->
<svg version="1.1" id="Calque_1" xmlns="http://www.w3.org/2000/svg" xmlns:xlink="http://www.w3.org/1999/xlink" x="0px" y="0px"
	 viewBox="0 0 40 40" style="enable-background:new 0 0 40 40;" xml:space="preserve">
<style type="text/css">
	.st0{fill:#FFFFFF;}
</style>
<path class="st0" d="M30.5,14.8c-0.3-0.9-1-1.6-1.9-1.9c-1.7-0.4-8.6-0.4-8.6-0.4s-6.9,0-8.6,0.4c-0.9,0.2-1.7,1-1.9,1.9
	C9,16.5,9,20,9,20s0,3.5,0.5,5.2c0.3,0.9,1,1.6,1.9,1.9c1.7,0.4,8.6,0.4,8.6,0.4s6.9,0,8.6-0.4c0.9-0.2,1.7-1,1.9-1.9
	C31,23.5,31,20,31,20S31,16.5,30.5,14.8z M17.8,23.2v-6.3l5.7,3.2L17.8,23.2L17.8,23.2z"/>
</svg>
