<?xml version="1.0" encoding="utf-8"?>
<!-- Generator: $$$/GeneralStr/196=Adobe Illustrator 27.6.0, SVG Export Plug-In . SVG Version: 6.00 Build 0)  -->
<svg version="1.1" id="Calque_1" xmlns="http://www.w3.org/2000/svg" xmlns:xlink="http://www.w3.org/1999/xlink" x="0px" y="0px"
	 viewBox="0 0 40 40" style="enable-background:new 0 0 40 40;" xml:space="preserve">
<style type="text/css">
	.st0{fill:none;stroke:#FFFFFF;stroke-width:1.4;stroke-miterlimit:10;}
</style>
<g>
	<path class="st0" d="M27.5,15.3H12.5c-1,0-1.9,0.8-1.9,1.9v9.4c0,1,0.8,1.9,1.9,1.9h15.1c1,0,1.9-0.8,1.9-1.9v-9.4
		C29.4,16.1,28.6,15.3,27.5,15.3z"/>
	<path class="st0" d="M23.8,28.5V13.4c0-0.5-0.2-1-0.6-1.3c-0.4-0.4-0.8-0.6-1.3-0.6h-3.8c-0.5,0-1,0.2-1.3,0.6
		c-0.4,0.4-0.6,0.8-0.6,1.3v15.1"/>
</g>
</svg>
