<?xml version="1.0" encoding="utf-8"?>
<!-- Generator: $$$/GeneralStr/196=Adobe Illustrator 27.6.0, SVG Export Plug-In . SVG Version: 6.00 Build 0)  -->
<svg version="1.1" id="Calque_1" xmlns="http://www.w3.org/2000/svg" xmlns:xlink="http://www.w3.org/1999/xlink" x="0px" y="0px"
	 viewBox="0 0 40 40" style="enable-background:new 0 0 40 40;" xml:space="preserve">
<path d="M20,3c2.7,0,5,2.2,5,5v3.6h4c0.5,0,0.9,0.4,1,0.8v0.1l0,0l3.1,23.4V36c0,0.3-0.1,0.5-0.3,0.7s-0.5,0.4-0.8,0.4H7.9
	c-0.3,0-0.6-0.1-0.8-0.4c-0.2-0.2-0.3-0.5-0.3-0.9L10,12.4c0.1-0.5,0.5-0.9,1.1-0.9h4V7.9C15,5.2,17.3,3,20,3z M7.9,36.7L7.9,36.7
	L7.9,36.7z M7.7,36.7L7.7,36.7L7.7,36.7z M7.6,36.6L7.6,36.6L7.6,36.6z M7.5,36.5C7.5,36.6,7.5,36.6,7.5,36.5
	C7.5,36.6,7.5,36.6,7.5,36.5z M7.2,35.8c0,0.1,0,0.2,0,0.2S7.2,35.9,7.2,35.8z M8.8,35.2L8.8,35.2l2.9-21.8L8.8,35.2z M9.2,34.9
	h21.6L28,13.7h-3v2.4c0,0.6-0.5,1.1-1.1,1.1s-1.1-0.5-1.1-1.1v-2.4h-5.6v2.4c0,0.6-0.5,1.1-1.1,1.1S15,16.7,15,16.1v-2.4h-3
	L9.2,34.9z M20,23.3c1,0,2,0.2,2.7,0.6c0.7,0.3,1.2,0.8,1.2,1.5s-0.5,1.2-1.2,1.5s-1.6,0.5-2.7,0.5c-1,0-2-0.2-2.7-0.6
	C16.6,26.5,16,26,16,25.3l0,0c0-0.7,0.6-1.2,1.2-1.5C18,23.4,19,23.3,20,23.3z M20.6,27h0.1C20.7,27,20.7,27,20.6,27z M21,27
	C21,27,21.1,27,21,27C21.1,27,21,27,21,27z M21.3,26.9c0.1,0,0.1,0,0.2,0C21.4,26.9,21.3,26.9,21.3,26.9z M21.6,26.9h0.1
	C21.7,26.8,21.6,26.9,21.6,26.9z M22,26.8L22,26.8L22,26.8z M22.2,26.7C22.2,26.7,22.3,26.7,22.2,26.7
	C22.3,26.7,22.2,26.7,22.2,26.7z M22.4,26.6h0.1C22.5,26.6,22.5,26.6,22.4,26.6z M22.7,26.5c0,0,0.1,0,0.1-0.1
	C22.7,26.4,22.7,26.5,22.7,26.5z M22.9,26.4c0,0,0.1,0,0.1-0.1C22.9,26.3,22.9,26.4,22.9,26.4z M23.1,26.2L23.1,26.2L23.1,26.2z
	 M23.2,26.1C23.3,26.1,23.3,26,23.2,26.1C23.3,26,23.3,26.1,23.2,26.1z M23.4,25.9L23.4,25.9L23.4,25.9z M23.6,25.6
	c0-0.1,0-0.1,0-0.2V25.6C23.6,25.5,23.6,25.6,23.6,25.6z M23.3,24.6L23.3,24.6L23.3,24.6z M17,24.3c0.1-0.1,0.3-0.2,0.4-0.3
	C17.3,24.1,17.1,24.2,17,24.3z M22.6,24.1L22.6,24.1L22.6,24.1z M20.7,23.6c0.1,0,0.2,0,0.3,0c-0.2,0-0.4-0.1-0.7-0.1L20.7,23.6z
	 M19.6,23.6L19.6,23.6L19.6,23.6z M16.4,16.8c-0.1,0-0.2,0.1-0.3,0.1l0,0C16.2,16.9,16.3,16.9,16.4,16.8L16.4,16.8z M23.8,16.9
	L23.8,16.9L23.8,16.9z M16,16.9L16,16.9C16.1,16.9,16,16.9,16,16.9L16,16.9z M24,16.9L24,16.9L24,16.9z M23.7,16.8L23.7,16.8
	L23.7,16.8z M15.9,16.8L15.9,16.8L15.9,16.8z M24.2,16.8L24.2,16.8L24.2,16.8z M23.5,16.8L23.5,16.8L23.5,16.8z M15.7,16.8
	C15.7,16.8,15.8,16.8,15.7,16.8C15.8,16.8,15.7,16.8,15.7,16.8z M24.2,16.8C24.3,16.8,24.3,16.8,24.2,16.8
	C24.3,16.8,24.3,16.8,24.2,16.8z M23.2,16.5c0.1,0.1,0.1,0.1,0.2,0.2C23.4,16.7,23.3,16.6,23.2,16.5z M15.6,16.7L15.6,16.7
	L15.6,16.7z M24.4,16.7L24.4,16.7L24.4,16.7z M15.5,16.6L15.5,16.6L15.5,16.6z M24.5,16.6L24.5,16.6L24.5,16.6z M15.4,16.4
	C15.4,16.4,15.4,16.5,15.4,16.4C15.4,16.5,15.4,16.4,15.4,16.4z M23.2,16.4C23.2,16.4,23.2,16.5,23.2,16.4
	C23.2,16.5,23.2,16.4,23.2,16.4z M24.5,16.5C24.6,16.5,24.6,16.4,24.5,16.5C24.6,16.4,24.6,16.5,24.5,16.5z M15.4,16.4L15.4,16.4
	L15.4,16.4z M24.7,16.1L24.7,16.1L24.7,16.1v-2.7V16.1z M10.3,12.3v0.1C10.3,12.4,10.3,12.4,10.3,12.3z M29.7,12.5v-0.1
	C29.7,12.4,29.7,12.4,29.7,12.5z M10.4,12.2C10.3,12.3,10.3,12.3,10.4,12.2C10.3,12.3,10.3,12.3,10.4,12.2z M29.7,12.3
	C29.7,12.3,29.6,12.3,29.7,12.3C29.6,12.3,29.7,12.3,29.7,12.3z M10.4,12.1C10.4,12.1,10.4,12.2,10.4,12.1
	C10.4,12.2,10.4,12.1,10.4,12.1z M29.6,12.2C29.6,12.2,29.6,12.1,29.6,12.2C29.6,12.1,29.6,12.2,29.6,12.2z M10.5,12
	C10.5,12,10.5,12.1,10.5,12C10.5,12.1,10.5,12,10.5,12z M29.5,12.1C29.5,12.1,29.5,12,29.5,12.1C29.5,12,29.5,12.1,29.5,12.1z
	 M10.6,11.9C10.6,12,10.6,12,10.6,11.9C10.6,12,10.6,12,10.6,11.9z M29.4,12L29.4,12L29.4,12z M10.8,11.9c0,0-0.1,0-0.1,0.1
	C10.7,11.9,10.7,11.9,10.8,11.9z M29.3,11.9L29.3,11.9L29.3,11.9z M10.8,11.9L10.8,11.9h0.1H10.8z M28.9,11.8c0.1,0,0.2,0,0.3,0
	h-0.1H28.9z M20,5.1c-1.6,0-2.8,1.3-2.8,2.8v3.6h5.6V8C22.8,6.4,21.6,5.1,20,5.1z M24.5,6.9C24.5,6.8,24.5,6.8,24.5,6.9
	C24.5,6.8,24.5,6.8,24.5,6.9z M24.4,6.4L24.4,6.4L24.4,6.4z M24.3,6.2L24.3,6.2L24.3,6.2z M24.3,6.1L24.3,6.1
	C24.2,6,24.3,6,24.3,6.1z M17.8,5.8L17.8,5.8L17.8,5.8z M24,5.6L24,5.6L24,5.6z M23.8,5.3C23.8,5.2,23.8,5.2,23.8,5.3
	C23.8,5.2,23.8,5.2,23.8,5.3z M23.7,5.1C23.7,5.1,23.7,5,23.7,5.1C23.7,5,23.7,5.1,23.7,5.1z M20.2,4.8c0.2,0,0.4,0,0.6,0.1
	C20.6,4.9,20.4,4.9,20.2,4.8z M23.6,4.9C23.5,4.9,23.5,4.9,23.6,4.9C23.5,4.9,23.5,4.9,23.6,4.9z M19.8,4.8L19.8,4.8L19.8,4.8z
	 M23.4,4.8C23.4,4.7,23.4,4.7,23.4,4.8C23.4,4.7,23.4,4.7,23.4,4.8z M23.3,4.6C23.2,4.6,23.2,4.6,23.3,4.6
	C23.2,4.6,23.2,4.6,23.3,4.6z M23.1,4.5C23.1,4.4,23,4.4,23.1,4.5C23,4.4,23.1,4.4,23.1,4.5z M22.9,4.3L22.9,4.3L22.9,4.3z
	 M22.8,4.2C22.7,4.2,22.7,4.1,22.8,4.2C22.7,4.1,22.7,4.2,22.8,4.2z M22.6,4.1C22.5,4,22.5,4,22.6,4.1C22.5,4,22.5,4,22.6,4.1z
	 M22.4,3.9C22.4,3.9,22.3,3.9,22.4,3.9C22.3,3.9,22.4,3.9,22.4,3.9z M22.2,3.8C22.2,3.8,22.1,3.8,22.2,3.8
	C22.1,3.8,22.2,3.8,22.2,3.8z M22,3.7c0,0-0.1,0-0.1-0.1C21.9,3.7,22,3.7,22,3.7z M21.8,3.6c0,0-0.1,0-0.1-0.1
	C21.7,3.6,21.8,3.6,21.8,3.6z M21.6,3.6h-0.1C21.5,3.5,21.5,3.5,21.6,3.6z M21.4,3.5h-0.1C21.3,3.5,21.3,3.5,21.4,3.5z M21.1,3.4H21
	C21.1,3.4,21.1,3.4,21.1,3.4z M20,3.3c0.3,0,0.6,0,0.9,0.1c-0.2,0-0.5-0.1-0.7-0.1H20z M23.5,25.7L23.5,25.7L23.5,25.7z M23.5,25.7
	C23.5,25.6,23.6,25.6,23.5,25.7C23.6,25.6,23.5,25.6,23.5,25.7z"/>
</svg>
