<?xml version="1.0" standalone="no"?>
<!DOCTYPE svg PUBLIC "-//W3C//DTD SVG 20010904//EN"
 "http://www.w3.org/TR/2001/REC-SVG-20010904/DTD/svg10.dtd">
<svg version="1.0" xmlns="http://www.w3.org/2000/svg"
 width="700.000000pt" height="700.000000pt" viewBox="0 0 700.000000 700.000000"
 preserveAspectRatio="xMidYMid meet">
<metadata>
Created by potrace 1.14, written by Peter Selinger 2001-2017
</metadata>
<g transform="translate(0.000000,700.000000) scale(0.100000,-0.100000)"
fill="#000000" stroke="none">
<path d="M3278 6994 c-2 -1 -47 -4 -101 -8 -283 -17 -682 -113 -962 -231 -16
-7 -55 -23 -85 -35 -265 -108 -574 -286 -768 -441 -155 -125 -402 -363 -557
-539 -268 -303 -501 -730 -644 -1180 -23 -73 -68 -247 -77 -294 -3 -17 -9 -49
-14 -71 -52 -234 -76 -622 -56 -910 7 -104 8 -108 26 -245 70 -518 279 -1052
579 -1485 30 -44 58 -82 61 -85 3 -3 21 -25 40 -50 149 -196 439 -489 655
-661 216 -173 570 -373 855 -483 124 -48 358 -118 439 -132 14 -3 42 -9 61
-14 30 -7 154 -28 270 -45 191 -27 759 -27 958 0 17 3 49 7 70 10 420 59 834
212 1247 460 421 254 806 619 1081 1025 302 446 517 1018 569 1520 3 30 9 89
14 130 8 80 7 515 -2 565 -3 17 -8 62 -12 100 -3 39 -7 81 -10 95 -2 14 -7 48
-10 75 -32 264 -129 603 -249 870 -39 88 -144 293 -156 305 -3 3 -14 21 -24
40 -68 123 -252 375 -378 520 -231 264 -585 563 -840 708 -18 11 -65 38 -104
60 -281 161 -656 298 -969 356 -92 17 -207 36 -255 41 -30 3 -66 8 -80 10 -77
13 -561 29 -572 19z m557 -338 c33 -3 79 -8 103 -11 23 -3 63 -8 90 -11 154
-19 392 -86 607 -171 542 -214 1027 -581 1363 -1033 39 -52 80 -106 90 -120
11 -14 54 -83 97 -155 244 -405 396 -863 442 -1330 15 -150 7 -653 -11 -684
-2 -3 -6 -34 -10 -67 -16 -152 -89 -441 -161 -634 -57 -152 -66 -173 -141
-322 -307 -616 -793 -1106 -1404 -1417 -297 -151 -697 -276 -985 -307 -27 -3
-56 -7 -63 -9 -26 -9 -233 -19 -377 -19 -242 0 -428 18 -620 61 -38 8 -82 17
-98 20 -15 2 -81 20 -147 38 -748 214 -1412 718 -1827 1389 -215 347 -396 836
-431 1161 -9 90 -9 899 0 985 30 269 174 688 340 990 61 110 85 151 147 245
334 507 792 895 1367 1159 289 133 619 224 883 242 42 3 78 7 80 9 5 6 597 -2
666 -9z"/>
<path d="M3925 5636 c-135 -39 -275 -135 -356 -246 -218 -297 -133 -734 176
-905 110 -61 192 -79 385 -85 60 -1 58 -9 -57 -196 -136 -222 -193 -320 -193
-332 0 -14 50 -20 200 -21 l135 -1 127 212 c69 117 145 245 167 283 104 175
211 408 242 525 28 109 8 270 -50 404 -61 139 -200 281 -322 327 -107 41 -363
60 -454 35z m290 -307 c31 -11 75 -35 98 -53 185 -141 152 -444 -59 -551 -53
-27 -68 -30 -154 -30 -82 0 -103 4 -152 27 -216 101 -251 391 -66 541 115 92
211 112 333 66z"/>
<path d="M2425 5606 c-2 -11 -3 -411 -3 -888 l1 -868 161 0 162 0 -1 878 c-1
482 -3 882 -3 889 -2 8 -45 11 -157 11 -150 -1 -155 -1 -160 -22z"/>
<path d="M2857 3204 c-1 -1 -20 -4 -42 -5 -54 -5 -82 -20 -111 -63 -96 -141
-422 -718 -453 -802 -68 -180 -71 -420 -8 -558 109 -238 363 -390 632 -379
155 6 310 67 419 164 54 49 146 166 146 186 0 6 7 24 15 41 9 17 23 63 31 103
55 266 -45 522 -257 659 -93 60 -202 90 -344 95 -113 4 -108 3 -102 26 3 11
59 108 124 215 65 107 131 215 146 241 27 44 28 48 11 60 -10 7 -29 14 -43 14
-49 3 -162 4 -164 3z m70 -848 c29 -8 73 -24 98 -36 51 -25 132 -110 141 -149
4 -14 11 -32 17 -39 16 -21 12 -152 -7 -210 -23 -67 -97 -149 -168 -185 -204
-103 -445 17 -486 243 -27 143 35 268 166 341 85 47 156 57 239 35z"/>
<path d="M4204 3201 c-2 -2 -4 -402 -4 -888 0 -699 3 -883 13 -884 67 -4 291
-3 300 3 10 6 18 1752 7 1766 -5 7 -309 10 -316 3z"/>
</g>
</svg>
