<svg xmlns="http://www.w3.org/2000/svg">
    <symbol id="instagram" viewBox="0 0 40 40" fill="currentColor">
        <path d="M20,16.2c-2.1,0-3.9,1.7-3.9,3.9s1.7,3.8,3.9,3.8s3.9-1.7,3.9-3.8S22.1,16.2,20,16.2z M20,22.5 c-1.4,0-2.5-1.1-2.5-2.5c0-1.4,1.1-2.5,2.5-2.5c1.4,0,2.5,1.1,2.5,2.5C22.5,21.4,21.4,22.5,20,22.5z"/>
        <path d="M24.9,16c0,0.5-0.4,0.9-0.9,0.9c-0.5,0-0.9-0.4-0.9-0.9c0-0.5,0.4-0.9,0.9-0.9C24.5,15.1,24.9,15.5,24.9,16z"/>
        <path d="M27.5,16.9c0-0.8-0.2-1.3-0.4-1.8c-0.2-0.5-0.5-1-0.9-1.3c-0.4-0.4-0.8-0.7-1.3-0.9c-0.5-0.2-1-0.3-1.8-0.4 c-0.8,0-1.1,0-3.1,0s-2.3,0-3.1,0s-1.3,0.2-1.8,0.4c-0.5,0.2-1,0.5-1.3,0.9c-0.4,0.4-0.7,0.8-0.9,1.3c-0.2,0.5-0.3,1-0.4,1.8 c0,0.8,0,1.1,0,3.1s0,2.3,0,3.1c0,0.8,0.2,1.3,0.4,1.8c0.2,0.5,0.5,1,0.9,1.3c0.4,0.4,0.8,0.7,1.3,0.9c0.5,0.2,1,0.3,1.8,0.4 c0.8,0,1.1,0,3.1,0s2.3,0,3.1,0s1.3-0.2,1.8-0.4c1-0.4,1.8-1.2,2.2-2.2c0.2-0.5,0.3-1,0.4-1.8c0-0.8,0-1.1,0-3.1 S27.5,17.7,27.5,16.9z M26.1,23c0,0.7-0.2,1.1-0.3,1.4c-0.2,0.7-0.8,1.2-1.4,1.4c-0.3,0.1-0.7,0.2-1.4,0.3c-0.8,0-1,0-3,0 s-2.2,0-3,0c-0.7,0-1.1-0.2-1.4-0.3c-0.3-0.1-0.6-0.3-0.9-0.6c-0.2-0.2-0.4-0.5-0.6-0.9c-0.1-0.3-0.2-0.7-0.3-1.4c0-0.8,0-1,0-3 s0-2.2,0-3c0-0.7,0.2-1.1,0.3-1.4c0.1-0.3,0.3-0.6,0.6-0.9c0.2-0.2,0.5-0.4,0.9-0.6c0.3-0.1,0.7-0.2,1.4-0.3c0.8,0,1,0,3,0 c2,0,2.2,0,3,0c0.7,0,1.1,0.2,1.4,0.3c0.3,0.1,0.6,0.3,0.9,0.6c0.2,0.2,0.4,0.5,0.6,0.9c0.1,0.3,0.2,0.7,0.3,1.4c0,0.8,0,1,0,3 S26.1,22.2,26.1,23L26.1,23z"/>
    </symbol>

    <symbol id="facebook" viewBox="0 0 40 40" fill="currentColor">
        <path d="M18.1,27.5h3.1v-7.6h2.1l0.2-2.5h-2.4V16c0-0.6,0.1-0.8,0.7-0.8h1.7v-2.6h-2.1c-2.3,0-3.3,1-3.3,2.9v2h-1.6V20 h1.6V27.5L18.1,27.5z"/>
    </symbol>

    <symbol id="linkedin" viewBox="0 0 40 40" fill="currentColor">
        <path d="M14.3,16.2c1,0,1.8-0.8,1.8-1.8s-0.8-1.8-1.8-1.8c-1,0-1.8,0.8-1.8,1.8S13.3,16.2,14.3,16.2z"/>
        <path d="M15.9,17.5h-3.1v10h3.1V17.5z"/>
        <path d="M20.8,22.3c0-1.4,0.6-2.2,1.9-2.2c1.1,0,1.7,0.8,1.7,2.2v5.2h3.1v-6.3c0-2.7-1.5-4-3.6-4c-2.1,0-3,1.7-3,1.7 v-1.3h-3v10h3L20.8,22.3L20.8,22.3z"/>
    </symbol>

    <symbol id="tiktok" viewBox="0 0 40 40" fill="currentColor">
        <path d="M25.3,15.4c-0.1-0.1-0.2-0.1-0.3-0.2c-0.3-0.2-0.6-0.4-0.8-0.7c-0.6-0.7-0.8-1.4-0.9-1.9h0 c-0.1-0.4,0-0.7,0-0.7h-2.8v10.7c0,0.1,0,0.3,0,0.4c0,0,0,0,0,0.1c0,0,0,0,0,0c0,0,0,0,0,0c0,0.4-0.2,0.8-0.4,1.1 c-0.2,0.3-0.5,0.6-0.8,0.8c-0.3,0.2-0.7,0.3-1.1,0.3c-1.3,0-2.3-1.1-2.3-2.4c0-1.3,1-2.4,2.3-2.4c0.2,0,0.5,0,0.7,0.1l0-2.8 c-0.7-0.1-1.4,0-2.1,0.2c-0.7,0.2-1.3,0.5-1.9,1c-0.5,0.4-0.9,0.9-1.2,1.5c-0.1,0.2-0.6,1-0.6,2.3c0,0.7,0.2,1.5,0.3,1.8v0 c0.1,0.2,0.3,0.8,0.8,1.4c0.3,0.4,0.7,0.8,1.2,1.1v0l0,0c1.3,0.9,2.8,0.9,2.8,0.9c0.3,0,1.1,0,2.1-0.5c1.1-0.5,1.7-1.3,1.7-1.3 c0.4-0.5,0.7-1,0.9-1.5c0.3-0.7,0.3-1.5,0.3-1.8v-5.7c0,0,0.5,0.3,0.5,0.3s0.6,0.4,1.7,0.7c0.7,0.2,1.7,0.2,1.7,0.2v-2.8 C26.7,15.8,26,15.7,25.3,15.4z"/>
    </symbol>

    <symbol id="x" viewBox="0 0 40 40" fill="currentColor">
        <path d="M24.9,12.5h2.6l-5.7,6.4l6.7,8.6h-5.2l-4.1-5.2l-4.7,5.2h-2.6l6.1-6.8l-6.4-8.2h5.4l3.7,4.8L24.9,12.5z M24,26 h1.4l-9.3-12h-1.6L24,26z"/>
    </symbol>

    <symbol id="youtube" viewBox="0 0 40 40" fill="currentColor">
        <path d="M30.5,14.8c-0.3-0.9-1-1.6-1.9-1.9c-1.7-0.4-8.6-0.4-8.6-0.4s-6.9,0-8.6,0.4c-0.9,0.2-1.7,1-1.9,1.9 C9,16.5,9,20,9,20s0,3.5,0.5,5.2c0.3,0.9,1,1.6,1.9,1.9c1.7,0.4,8.6,0.4,8.6,0.4s6.9,0,8.6-0.4c0.9-0.2,1.7-1,1.9-1.9 C31,23.5,31,20,31,20S31,16.5,30.5,14.8z M17.8,23.2v-6.3l5.7,3.2L17.8,23.2L17.8,23.2z"/>
    </symbol>

    <symbol id="copy" viewBox="0 0 40 40" fill="currentColor">
        <path d="M27.4,12.9H14.7c-0.5,0-1,0.2-1.3,0.5c-0.3,0.3-0.5,0.8-0.5,1.3v12.8c0,0.5,0.2,1,0.5,1.3c0.3,0.3,0.8,0.5,1.3,0.5h12.8 c0.2,0,0.5,0,0.7-0.1c0.2-0.1,0.4-0.2,0.6-0.4c0.2-0.2,0.3-0.4,0.4-0.6c0.1-0.2,0.1-0.5,0.1-0.7V14.7c0-0.2,0-0.5-0.1-0.7 c-0.1-0.2-0.2-0.4-0.4-0.6c-0.2-0.2-0.4-0.3-0.6-0.4C27.9,12.9,27.6,12.9,27.4,12.9z M28,27.4c0,0.1,0,0.1,0,0.2 c0,0-0.1,0.1-0.1,0.2c0,0-0.1,0.1-0.2,0.1c0,0-0.1,0-0.2,0H14.7c-0.1,0-0.3,0-0.4-0.1s-0.1-0.2-0.1-0.4V14.7c0-0.1,0-0.3,0.1-0.4 s0.2-0.1,0.4-0.1h12.8c0.1,0,0.1,0,0.2,0c0,0,0.1,0,0.1,0.1c0,0,0.1,0.1,0.1,0.2c0,0,0,0.1,0,0.2C28,14.7,28,27.4,28,27.4z"/>
        <path d="M26.4,11.4c0-0.1,0-0.3-0.2-0.4c-0.1-0.1-0.3-0.2-0.4-0.2H12.6c-0.2,0-0.5,0-0.7,0.1c-0.2,0.1-0.4,0.2-0.6,0.4 c-0.1,0.2-0.3,0.4-0.4,0.6c-0.1,0.2-0.1,0.5-0.1,0.7v13.5c0,0.1,0,0.3,0.2,0.4c0.1,0.1,0.3,0.2,0.4,0.2c0.1,0,0.3,0,0.4-0.2 c0.1-0.1,0.2-0.3,0.2-0.4V12.6c0-0.1,0-0.1,0-0.2c0,0,0-0.1,0.1-0.2c0.1,0,0.1-0.1,0.2-0.1c0,0,0.1,0,0.2,0h13.1 c0.1,0,0.3,0,0.4-0.2C26.3,11.7,26.4,11.6,26.4,11.4z"/>
        <path d="M25.1,15.4c-0.2-0.1-0.4-0.2-0.6-0.2c-0.2,0-0.4,0-0.7,0c-0.9,0.1-1.9,0.9-2.6,1.9c-0.9,1.2-1.2,2.4-0.9,3.4 c0,0,0,0.1-0.1,0.1c-0.6,0.9-0.8,1.8-0.4,2.1c0.1,0,0.2,0.1,0.3,0.1s0.2,0,0.3,0c-0.1,0.6-0.3,1.2-0.7,1.7c-0.4,0.6-1,1.1-1.7,1.3 c0,0-0.1,0-0.2,0s-0.1,0-0.2,0c-0.3-0.2-0.2-1.3,0.6-2.4c0.2-0.3,0.4-0.5,0.7-0.8c0.1-0.1,0.2-0.3,0.2-0.4c0-0.2,0-0.3-0.1-0.5 c-0.1-0.1-0.3-0.2-0.4-0.2c-0.2,0-0.3,0-0.5,0.1c-0.3,0.3-0.6,0.6-0.9,1c-1.2,1.7-1.3,3.5-0.3,4.2c0.3,0.2,0.6,0.3,1,0.3 c0.1,0,0.2,0,0.3,0c0.9-0.1,1.8-0.9,2.5-1.8c0.9-1.2,1.2-2.5,0.9-3.4l0-0.1c0.6-0.9,0.8-1.9,0.4-2.2c-0.1,0-0.2-0.1-0.3-0.1 s-0.2,0-0.3,0c0.1-0.6,0.3-1.2,0.7-1.6c0.4-0.7,1.1-1.2,1.8-1.3c0.1,0,0.2,0,0.3,0c0.3,0.2,0.2,1.2-0.6,2.4 c-0.2,0.3-0.4,0.6-0.7,0.8c-0.1,0.1-0.2,0.2-0.2,0.4c0,0.1,0,0.3,0.1,0.5c0.1,0.1,0.2,0.2,0.4,0.2c0.1,0,0.3,0,0.5-0.1 c0.3-0.3,0.7-0.6,0.9-1C26,18,26.1,16.2,25.1,15.4z"/>
    </symbol>

    <symbol id="whatsapp" viewBox="0 0 40 40" fill="currentColor">
        <path d="M8.9,31.1c0.2-0.8,0.5-1.5,0.8-2.3c0.4-1.1,0.7-2.2,1.1-3.2c0.1-0.1,0-0.3-0.1-0.5c-3.6-6.5,0-14.4,7.3-15.9 c6-1.2,11.9,2.7,12.9,8.7c0.9,5.9-2.9,11.4-8.8,12.4c-2.4,0.5-4.7,0.1-6.9-1c-0.2-0.1-0.4-0.1-0.6-0.1c-1.8,0.6-3.6,1.1-5.3,1.7 C9.2,31,9.2,31,8.9,31.1z M11.7,28.4c0.2-0.1,0.3-0.1,0.4-0.1c0.9-0.3,1.8-0.7,2.8-0.9c0.1-0.1,0.3,0,0.5,0.1 c2.2,1.2,4.5,1.7,7,1.1c4.7-1.1,7.8-5.8,6.8-10.5c-0.9-4.9-5.6-8.1-10.5-7.2c-6.5,1.1-9.7,8.5-6,13.9c0.1,0.2,0.1,0.4,0.1,0.7 C12.4,26.4,12.1,27.3,11.7,28.4L11.7,28.4z"/>
        <path d="M14.6,17.4c0.1-0.8,0.3-1.4,0.8-1.9c0.4-0.5,0.9-0.5,1.5-0.5c0.1,0,0.3,0.2,0.4,0.3c0.3,0.7,0.7,1.5,0.9,2.2 c0.1,0.1,0,0.3-0.1,0.5c-0.2,0.3-0.4,0.6-0.6,0.8c-0.2,0.2-0.2,0.5-0.1,0.7c0.9,1.4,2.1,2.5,3.6,3.1c0.2,0.1,0.4,0.1,0.6-0.1 c0.2-0.3,0.5-0.7,0.8-0.9c0.2-0.2,0.3-0.3,0.6-0.2c0.8,0.3,1.5,0.7,2.3,1.1c0.1,0.1,0.2,0.3,0.2,0.5c-0.1,1.1-0.8,1.9-1.9,2.2 c-0.7,0.1-1.1,0.1-1.8-0.1c-2.5-0.7-4.4-2.2-5.9-4.3c-0.5-0.7-0.9-1.4-1.1-2.3C14.6,17.8,14.6,17.5,14.6,17.4L14.6,17.4z"/>
    </symbol>

    <symbol id="mail" viewBox="0 0 40 40" fill="currentColor">
        <path d="M28.2,12.7H11.8c-0.4,0-0.8,0.2-1.1,0.5h-0.1l-0.1,0.1c-0.3,0.4-0.5,0.8-0.5,1.2v11.2c0,0.2,0.1,0.5,0.1,0.6 c0.1,0.2,0.2,0.4,0.4,0.6c0,0,0,0.1,0.1,0.1c0.1,0.1,0.2,0.2,0.3,0.2c0.3,0.2,0.6,0.3,0.9,0.3h16.4c0.3,0,0.5-0.1,0.7-0.2 c0.2-0.1,0.3-0.1,0.4-0.2c0-0.1,0.1-0.1,0.1-0.1c0.2-0.2,0.3-0.4,0.4-0.6c0.1-0.2,0.2-0.4,0.2-0.7V14.4c0-0.5-0.2-0.9-0.5-1.2 S28.7,12.7,28.2,12.7z M11.5,15.1l5.1,5.4l-5.1,4.7C11.5,25.2,11.5,15.1,11.5,15.1z M20.1,22.2l-1.9-2c0-0.1-0.1-0.1-0.1-0.1 c-0.1-0.1-0.1-0.1-0.1-0.1l-5.6-5.9h15.3L20.1,22.2z M17.6,21.5l2,2.2c0.1,0.1,0.2,0.1,0.2,0.2c0.1,0.1,0.2,0.1,0.3,0.1 c0.1,0,0.2,0,0.3-0.1c0.1-0.1,0.2-0.1,0.2-0.2l1.9-2.1l4.8,4.3H12.7L17.6,21.5z M23.4,20.6l5.2-5.4v10.1L23.4,20.6z"/>
        <path d="M20,17.5c-1.1,0-2.1,0.5-2.1,1c0,0.6,1,1,2.1,1c1.2,0,2.1-0.5,2.1-1C22.1,17.9,21.2,17.5,20,17.5z"/>
    </symbol>

    <symbol id="top" viewBox="0 0 17 17" fill="none">
        <path d="M8.34961 13.2215V3.47949" stroke="white" stroke-width="1.25254" stroke-linecap="round" stroke-linejoin="round"/>
        <path d="M3.47852 8.3505L8.34952 3.47949L13.2205 8.3505" stroke="white" fill="none" stroke-width="1.25254" stroke-linecap="round" stroke-linejoin="round"/>
    </symbol>

    <symbol id="email" viewBox="0 0 23 24" fill="none" stroke="currentColor" stroke-width="1.5" stroke-linecap="round" stroke-linejoin="round">
        <path d="M13.7155 22.0337C13.7535 22.1284 13.8195 22.2092 13.9048 22.2653C13.99 22.3213 14.0903 22.35 14.1923 22.3474C14.2943 22.3447 14.3931 22.311 14.4753 22.2506C14.5576 22.1903 14.6194 22.1062 14.6525 22.0097L21.1525 3.00971C21.1845 2.92111 21.1906 2.82522 21.1701 2.73327C21.1496 2.64132 21.1033 2.55711 21.0367 2.49049C20.9701 2.42387 20.8859 2.37761 20.7939 2.3571C20.702 2.3366 20.6061 2.34271 20.5175 2.37471L1.51749 8.87471C1.42099 8.90781 1.33692 8.96963 1.27656 9.05188C1.21621 9.13414 1.18246 9.23288 1.17985 9.33487C1.17724 9.43686 1.20589 9.5372 1.26195 9.62244C1.31801 9.70767 1.39881 9.77372 1.49349 9.81171L9.42349 12.9917C9.67418 13.0921 9.90195 13.2422 10.0931 13.4329C10.2842 13.6237 10.4347 13.8512 10.5355 14.1017L13.7155 22.0337Z"/>
        <path d="M21.0338 2.49463L10.0938 13.4336"/>
    </symbol>

    <symbol id="quote" viewBox="0 0 40 40" fill="#EFF2F8">
        <path d="M19.2728 13.0836L18.2713 16.5751C17.5559 19.1579 17.6513 21.8842 18.4144 25.6627L13.7404 26.6671C12.9773 22.2668 13.3588 18.6318 14.265 16.0968L15.6481 12.2227L19.2728 13.0836ZM26.6654 13.7532L25.9023 16.5751C25.1869 19.2057 25.2822 21.4059 25.9977 24.8974L21.3237 25.8062C20.6083 21.5494 21.1329 18.6318 21.9914 16.0968L22.9929 12.9879L26.6654 13.7532Z"/>
    </symbol>

    <symbol id="comment" viewBox="0 0 40 40" fill="#EFF2F8">
	<path d="M31.4,11.1H8.6c-1.7,0-3,1.3-3,3c0,0,0,0,0,0v12.4c0,1.7,1.3,3,3,3l0,0h3.7v5.1c0,0.5,0.4,1,1,1c0.2,0,0.5-0.1,0.7-0.3 l6.4-5.8h11c1.6,0,3-1.3,3-3V14.1C34.4,12.5,33,11.2,31.4,11.1C31.4,11.1,31.4,11.1,31.4,11.1 M32.4,26.5c0,0.6-0.5,1-1,1H20 c-0.2,0-0.5,0.1-0.7,0.3l-5,4.6v-3.8c0-0.5-0.4-1-1-1H8.6c-0.6,0-1-0.5-1-1V14.1c0-0.6,0.4-1,1-1c0,0,0,0,0,0h22.7c0.6,0,1,0.5,1,1 V26.5z"/>
	<path d="M12.1,19.7c-1,1.4-1.2,2.8-0.5,3.3s2-0.3,2.9-1.7s1.2-2.9,0.5-3.3C14.4,17.5,13,18.3,12.1,19.7 M18.8,19.7 c-1,1.4-1.2,2.8-0.5,3.3c0.7,0.4,2-0.3,2.9-1.7c1-1.4,1.2-2.9,0.5-3.3C21,17.5,19.7,18.3,18.8,19.7 M25.5,19.7 c-1,1.4-1.2,2.8-0.5,3.3s2-0.3,2.9-1.7s1.2-2.9,0.5-3.3C27.7,17.5,26.4,18.3,25.5,19.7"/>

</symbol>

    <symbol id="chevron" viewBox="0 0 8 13" fill="none">
        <path d="M1.5,11.6l5.1-5.1L1.5,1.4" stroke="white"/>
        <path d="M1.12512 11.2361L6.18066 6.18054L1.12512 1.125" stroke="white" stroke-width="2.25" stroke-linecap="round" stroke-linejoin="round"/>
    </symbol>

    <symbol id="clock" viewBox="0 0 17 21" fill="none">
        <path d="M8.4541 0C9.82537 0.00984597 10.9335 0.556569 10.9287 1.22168C10.925 1.8058 10.1018 2.2843 8.97559 2.3877C8.97612 2.39686 8.9814 2.40438 8.98145 2.41406V3.64551C10.7736 3.76409 12.4092 4.46437 13.7021 5.57031L14.9463 4.05078L14.6797 3.81348C14.4584 3.61536 14.4368 3.27349 14.6318 3.04883C14.8269 2.82476 15.1644 2.80244 15.3857 3.00098L16.0205 3.56738C16.0242 3.57003 16.0295 3.571 16.0332 3.57422C16.0382 3.57851 16.0403 3.58415 16.0449 3.58887L16.7119 4.18359C16.9331 4.38117 16.9538 4.72316 16.7588 4.94727C16.6535 5.06907 16.506 5.13086 16.3574 5.13086C16.2319 5.13079 16.1063 5.08693 16.0049 4.99609L15.749 4.76758L14.4707 6.32812C15.7914 7.79625 16.6045 9.74163 16.6045 11.8799C16.6044 16.4351 12.9455 20.1413 8.44727 20.1416C3.94932 20.1416 0.289153 16.4353 0.289062 11.8799C0.289062 9.74227 1.10181 7.79774 2.42188 6.3291L1.14355 4.76758L0.887695 4.99609C0.786142 5.08702 0.659778 5.13086 0.53418 5.13086C0.386146 5.13084 0.239069 5.06905 0.133789 4.94727C-0.0612558 4.72315 -0.0411277 4.38117 0.180664 4.18359L0.847656 3.58887C0.852337 3.58407 0.854711 3.5785 0.859375 3.57422C0.862998 3.57107 0.867407 3.56988 0.871094 3.56738L1.50586 3.00098C1.72711 2.8018 2.06465 2.8243 2.25977 3.04883C2.4554 3.27349 2.43472 3.61534 2.21289 3.81348L1.94531 4.05078L3.19043 5.57129C4.48339 4.46426 6.11993 3.7641 7.91211 3.64551V2.41406C7.91215 2.399 7.91928 2.38661 7.9209 2.37207C6.8107 2.24269 5.9611 1.76318 5.96484 1.19043C5.96948 0.525288 7.08335 -0.00850912 8.4541 0ZM8.98145 6.37598C8.98135 6.6751 8.74205 6.91673 8.44727 6.91699C8.15227 6.91699 7.9122 6.67526 7.91211 6.37598V4.72754C4.43044 4.99285 1.64688 7.81178 1.38477 11.3379H3.0127C3.30811 11.3381 3.54688 11.5806 3.54688 11.8799C3.54679 12.179 3.30805 12.4207 3.0127 12.4209H1.38477C1.64668 15.9472 4.43032 18.7659 7.91211 19.0312V17.3838C7.91211 17.0844 8.15221 16.8418 8.44727 16.8418C8.74211 16.8421 8.98145 17.0846 8.98145 17.3838V19.0312C12.4633 18.7659 15.2469 15.9472 15.5088 12.4209H13.8809C13.5861 12.4207 13.3468 12.179 13.3467 11.8799C13.3467 11.5807 13.586 11.3381 13.8809 11.3379H15.5088C15.2467 7.81177 12.4631 4.99284 8.98145 4.72754V6.37598ZM11.54 8.55566C11.7581 8.37958 12.0716 8.42108 12.2402 8.64941C12.4087 8.87823 12.3683 9.20577 12.1504 9.38184L9.49609 11.5293C9.47969 11.5422 9.46122 11.5477 9.44434 11.5586C9.49468 11.7163 9.52828 11.8817 9.52832 12.0566C9.52832 12.9318 8.84833 13.6445 8.0127 13.6445C7.17704 13.6445 6.49707 12.9318 6.49707 12.0566C6.49722 11.1816 7.17713 10.4697 8.0127 10.4697C8.32449 10.4697 8.61499 10.5695 8.85645 10.7393C8.86788 10.7278 8.87333 10.7126 8.88574 10.7021L11.54 8.55566ZM8.0127 11.5146C7.72742 11.5146 7.49527 11.7579 7.49512 12.0566C7.49512 12.3555 7.72732 12.5996 8.0127 12.5996C8.29855 12.5996 8.53125 12.3555 8.53125 12.0566C8.5311 11.7579 8.29845 11.5147 8.0127 11.5146Z" fill="var(--color-2)" style="fill:var(--color-2);fill:color(display-p3 0.0627 0.6157 0.7255);fill-opacity:1;"/>
    </symbol>

    <symbol id="download" viewBox="0 0 24 24" fill="none" stroke="#FFF6F6" stroke-width="2" stroke-linecap="round" stroke-linejoin="round">
        <path d="M21 15V19C21 19.5304 20.7893 20.0391 20.4142 20.4142C20.0391 20.7893 19.5304 21 19 21H5C4.46957 21 3.96086 20.7893 3.58579 20.4142C3.21071 20.0391 3 19.5304 3 19V15"/>
        <path d="M7 10L12 15L17 10"/>
        <path d="M12 15V3"/>
    </symbol>

    <symbol id="caret" viewBox="0 0 13 8" fill="var(--color-2)">
        <path fill-rule="evenodd" clip-rule="evenodd" d="M6.69506 6.96028C6.47539 7.17996 6.11929 7.17996 5.89961 6.96028L0.164751 1.22541C-0.0549169 1.00573 -0.0549169 0.649631 0.164751 0.429956L0.429921 0.164756C0.649588 -0.0549187 1.00574 -0.0549187 1.22542 0.164756L6.29734 5.23671L11.3693 0.164756C11.589 -0.0549187 11.9451 -0.0549187 12.1647 0.164756L12.4299 0.429956C12.6496 0.649631 12.6496 1.00573 12.4299 1.22541L6.69506 6.96028Z"/>
    </symbol>

    <symbol id="valid" viewBox="0 0 12 9" fill="none">
        <path d="M10.3717 0.75L3.75679 7.36493L0.75 4.35814" stroke="#fff" stroke-width="1.5" stroke-linecap="round" stroke-linejoin="round"/>
    </symbol>

    <symbol id="prev" viewBox="0 0 7 11" fill="none">
        <path d="M5.49381 9.98763L1 5.49381L5.49381 1" stroke="currentColor" stroke-width="2" stroke-linecap="round" stroke-linejoin="round"/>
    </symbol>

    <symbol id="next" viewBox="0 0 7 11" fill="none">
        <path d="M1.00033 9.98763L5.49414 5.49381L1.00033 1" stroke="currentColor" stroke-width="2" stroke-linecap="round" stroke-linejoin="round"/>
    </symbol>

    <symbol id="logo" viewBox="0 0 230 38">
        <g fill="var(--color-1)">
            <path d="M33.86,21.03v10.3h-4.71v-3.1c-0.73,1.91-2.25,3.4-5.01,3.4c-3.07,0-4.68-1.76-4.68-4.28 c0-3.22,2.52-4.8,7.47-6.02l2.22-0.55v-0.27c0-1.58-1.34-2.89-3.56-2.89c-1.94,0-3.43,0.82-4.28,2.37l-1.61-0.52 c0.73-3.19,3.4-5.41,7.29-5.41c4.13,0,6.87,2.34,6.87,6.96V21.03z M26.17,28.08c1.46,0,2.98-0.97,2.98-3.59v-0.91l-1.94,0.24 c-2.1,0.27-3.07,1.12-3.07,2.4s0.73,1.85,2.04,1.85L26.17,28.08z"/>
            <path d="M37.86,31.33V8.54h4.86v22.79H37.86z"/>
            <path d="M56.52,14.38h4.86v16.96h-4.65V28.3c-0.7,2.1-2.28,3.34-5.01,3.34c-3.01,0-4.98-1.92-4.98-5.68V14.38h4.86 v10.7c0,2.19,0.82,3.13,2.4,3.13s2.52-0.94,2.52-3.13C56.52,25.08,56.52,14.38,56.52,14.38z"/>
            <path d="M69.25,23.1c0.4,2.86,2.13,4.53,5.14,4.53c1.82,0,3.25-0.64,4.41-1.79l1.12,0.88 c-1.03,2.89-3.52,4.92-7.29,4.92c-4.95,0-8.2-3.46-8.2-8.84c0-5.04,3.16-8.72,7.93-8.72s7.87,3.59,7.75,9.02H69.26L69.25,23.1z M69.22,20.48h5.96c-0.33-2.49-1.25-3.74-2.92-3.74S69.49,17.98,69.22,20.48z"/>
            <polygon points="7.17,14.46 0,14.46 6.3,31.33 6.41,31.33 9.58,21.56"/>
        </g>
        <g fill="var(--color-2)">
            <path d="M89.1,9.75h14.24v3.33h-9.09v6.09h8.45v3.33h-8.45v8.76H89.1V9.74L89.1,9.75z"/>
            <path d="M119.46,21v10.27h-4.7v-3.09c-0.73,1.91-2.24,3.39-5,3.39c-3.06,0-4.67-1.76-4.67-4.27 c0-3.21,2.52-4.79,7.46-6l2.21-0.55v-0.27c0-1.58-1.33-2.88-3.55-2.88c-1.94,0-3.42,0.82-4.27,2.36l-1.61-0.52 c0.73-3.18,3.39-5.39,7.27-5.39c4.12,0,6.85,2.33,6.85,6.94L119.46,21z M111.79,28.03c1.45,0,2.97-0.97,2.97-3.58v-0.91 l-1.94,0.24c-2.09,0.27-3.06,1.12-3.06,2.39c0,1.27,0.73,1.85,2.03,1.85V28.03z"/>
            <path d="M132.82,20.84c-0.39-2.67-1.15-4.12-2.82-4.12c-2,0-3.06,1.82-3.06,4.79c0,3.79,1.82,6.03,5.18,6.03 c1.82,0,3.12-0.64,4.12-1.58l1.12,0.88c-1.06,2.76-3.42,4.73-7.12,4.73c-4.94,0-8-3.39-8-8.79s3.3-8.73,7.97-8.73 c3.82,0,6.36,2.21,7,5.58L132.82,20.84L132.82,20.84z"/>
            <path d="M140.55,26.24v-9.15h-2.39v-2.73h2.39v-3l4.85-0.97v3.97h4.24v2.73h-4.24v8.79c0,1.61,0.88,2.27,2.15,2.27 c0.76,0,1.36-0.21,2.09-0.7l1,1.06c-1.21,2.09-2.79,3.06-5.09,3.06C142.25,31.57,140.55,29.6,140.55,26.24z"/>
            <path d="M151.54,22.81c0-5.27,3.33-8.76,8.36-8.76s8.42,3.49,8.42,8.76s-3.36,8.76-8.42,8.76 S151.54,28.08,151.54,22.81z M163.21,22.81c0-4.12-1.18-6.03-3.3-6.03s-3.24,1.91-3.24,6.03s1.18,6.03,3.24,6.03 S163.21,26.93,163.21,22.81z"/>
            <path d="M176.21,31.27h-4.85V14.36h4.79v3.91c0.61-2.61,2.21-4.21,4.27-4.21c0.58,0,0.91,0.03,1.33,0.18l-0.52,4.88 c-0.52-0.21-1.12-0.33-1.94-0.33c-1.42,0-3.09,0.61-3.09,1.82v10.67L176.21,31.27z"/>
            <path d="M187.33,37.33l2.18-5.82l-7.06-17.15h5.24l4.3,11.06l3.85-11.06h3.33l-8.58,22.97h-3.27H187.33z"/>
            <path d="M15.81,2.36L20.32,0l1.93,4.62l-9.53,26.71h-6.3C6.42,31.33,15.81,2.36,15.81,2.36z"/>
        </g>

        <g fill="var(--color-6)">
            <path fill="var(--color-4)" d="M217.55,26.1c1.02,0.71,3.05-0.45,4.52-2.58c1.47-2.13,1.84-4.43,0.82-5.14c-1.02-0.71-2.99,0.39-4.47,2.52 C216.95,23.03,216.53,25.39,217.55,26.1"/>
            <path fill="var(--color-5)" d="M215,26.1c-1.02,0.71-3.05-0.45-4.52-2.58c-1.47-2.13-1.84-4.43-0.82-5.14c1.02-0.71,2.99,0.39,4.47,2.52 C215.6,23.03,216.02,25.39,215,26.1"/>
            <path d="M220.97,16.6c0-1.24-2.1-2.25-4.7-2.25s-4.7,1.01-4.7,2.25s2.1,2.25,4.7,2.25S220.97,17.84,220.97,16.6"/>

            <path d="M209.85,30.5c-0.16,0.21-0.41,0.29-0.68,0.29s-0.51-0.08-0.68-0.29s-0.18-0.56-0.18-0.93s0.02-0.66,0.18-0.87 c0.16-0.21,0.41-0.29,0.68-0.29s0.51,0.08,0.68,0.29c0.16,0.21,0.18,0.5,0.18,0.87S210.01,30.29,209.85,30.5 M210.22,28.36 c-0.29-0.34-0.71-0.43-1.05-0.43s-0.76,0.09-1.05,0.43c-0.29,0.34-0.33,0.78-0.33,1.21s0.04,0.94,0.33,1.27 c0.29,0.34,0.71,0.43,1.05,0.43s0.76-0.09,1.05-0.43c0.29-0.34,0.33-0.81,0.33-1.27S210.51,28.69,210.22,28.36"/>
            <path d="M213.41,28.26c0-0.14-0.11-0.25-0.25-0.25s-0.25,0.11-0.25,0.25v2.37c0,0-0.03,0.08-0.06,0.1 c-0.03,0.01-0.17,0.07-0.65,0.07c-0.24,0-0.49-0.1-0.65-0.3c-0.16-0.21-0.17-0.57-0.17-0.93v-1.3c0-0.14-0.11-0.25-0.25-0.25 s-0.25,0.11-0.25,0.25v1.3c0,0.45,0.03,0.94,0.32,1.3c0.26,0.31,0.69,0.42,1,0.42c0.2,0,0.64,0.01,1.03-0.13 c0.11-0.04,0.19-0.18,0.19-0.3v-2.58L213.41,28.26z"/>
            <path d="M222.14,28.26c0-0.14-0.11-0.25-0.25-0.25s-0.25,0.11-0.25,0.25v2.37c0,0-0.03,0.08-0.06,0.1 c-0.03,0.01-0.17,0.07-0.65,0.07c-0.24,0-0.49-0.1-0.65-0.3c-0.16-0.21-0.17-0.57-0.17-0.93v-1.3c0-0.14-0.11-0.25-0.25-0.25 s-0.25,0.11-0.25,0.25v1.3c0,0.45,0.03,0.94,0.32,1.3c0.26,0.31,0.69,0.42,1,0.42c0.2,0,0.64,0.01,1.03-0.13 c0.11-0.04,0.19-0.18,0.19-0.3v-2.58L222.14,28.26z"/>
            <path d="M218.69,30.23c0,0.18-0.08,0.3-0.16,0.38c-0.11,0.1-0.34,0.18-0.61,0.18s-0.51-0.08-0.68-0.28 c-0.16-0.21-0.18-0.5-0.18-0.86s0.02-0.75,0.18-0.95c0.16-0.2,0.42-0.28,0.68-0.28c0.2,0,0.47,0.04,0.7,0.12 c0.04,0.01,0.07,0.05,0.07,0.09v1.59V30.23z M219.21,28.39c0-0.11-0.07-0.2-0.16-0.25c-0.43-0.18-0.91-0.21-1.13-0.21 c-0.33,0-0.76,0.09-1.05,0.42c-0.29,0.33-0.33,0.84-0.33,1.29s0.04,0.87,0.33,1.2c0.29,0.33,0.71,0.42,1.05,0.42 c0.32,0,0.66-0.14,0.77-0.26v0.43c0,0.23-0.06,0.42-0.17,0.54c-0.11,0.13-0.27,0.19-0.47,0.19c-0.13,0-0.27-0.02-0.4-0.05 c-0.14-0.03-0.37-0.14-0.45-0.18s-0.23,0-0.3,0.1c-0.07,0.11-0.02,0.28,0.08,0.34c0.11,0.06,0.25,0.14,0.53,0.21 c0.18,0.05,0.36,0.07,0.53,0.07c0.19,0,0.36-0.03,0.5-0.09s0.26-0.15,0.36-0.26c0.09-0.11,0.17-0.24,0.22-0.39 s0.07-0.31,0.07-0.48v-3.05L219.21,28.39z"/>
            <path d="M227.32,28.61c0,0,0.04,0,0.06,0c0.12,0,0.23-0.1,0.23-0.23l0,0c0-0.07-0.05-0.18-0.14-0.24 c-0.22-0.15-0.55-0.21-0.85-0.21s-0.6,0.07-0.79,0.22c-0.19,0.15-0.29,0.35-0.29,0.62c0,0.48,0.36,0.83,1.06,0.97 c0.31,0.07,0.65,0.22,0.65,0.5c0,0.14-0.07,0.29-0.18,0.37c-0.18,0.13-0.44,0.16-0.57,0.16c-0.17,0-0.43-0.04-0.66-0.16 c0,0-0.02-0.01-0.03-0.02c-0.03-0.02-0.07-0.03-0.12-0.03c-0.13,0-0.24,0.11-0.24,0.24c0,0.06,0.02,0.11,0.05,0.15 c0.02,0.03,0.05,0.05,0.08,0.07c0.3,0.21,0.73,0.24,0.93,0.24c0.19,0,0.36-0.04,0.56-0.1c0.14-0.04,0.27-0.11,0.37-0.19 s0.18-0.18,0.24-0.3s0.1-0.29,0.1-0.43c0-0.64-0.57-0.9-1.07-1c-0.42-0.09-0.64-0.27-0.64-0.48c0-0.06,0.01-0.11,0.04-0.16 c0.03-0.04,0.07-0.08,0.12-0.11c0.05-0.03,0.1-0.05,0.17-0.06c0.06-0.01,0.14-0.02,0.24-0.02c0.14,0,0.45,0.07,0.58,0.13 c0.04,0.02,0.08,0.04,0.12,0.05"/>
            <path d="M206.74,30.52c-0.16,0.2-0.42,0.28-0.68,0.28c-0.2,0-0.48-0.04-0.7-0.12l0,0c0,0-0.06-0.05-0.06-0.09v-1.6 c0-0.18,0.08-0.3,0.16-0.38c0.11-0.1,0.34-0.18,0.6-0.18s0.51,0.07,0.68,0.28c0.16,0.21,0.18,0.54,0.18,0.91s-0.02,0.71-0.18,0.91 M207.11,28.35c-0.29-0.33-0.71-0.42-1.05-0.42c-0.32,0-0.66,0.14-0.77,0.26v-1.51c0-0.14-0.11-0.26-0.26-0.26 s-0.26,0.11-0.26,0.26v4.12c0,0.12,0.08,0.23,0.18,0.27c0.42,0.17,0.89,0.2,1.1,0.2c0.33,0,0.76-0.09,1.05-0.42 c0.29-0.33,0.33-0.8,0.33-1.25s-0.04-0.92-0.33-1.25"/>
            <path d="M215.19,30.41c0,0-0.04,0.05-0.08,0.05c-0.04,0-0.07-0.04-0.08-0.06c-0.08-0.11-0.71-1.85-0.84-2.23 c-0.05-0.13-0.19-0.19-0.32-0.15c-0.13,0.05-0.19,0.19-0.15,0.32l0.81,2.16c0.1,0.26,0.23,0.4,0.43,0.47l-0.49,1.31 c-0.05,0.13,0.02,0.27,0.15,0.32c0.13,0.05,0.27-0.02,0.32-0.15l1.56-4.12c0.05-0.13-0.02-0.27-0.14-0.32 c-0.13-0.05-0.27,0.02-0.32,0.14l-0.85,2.24L215.19,30.41z"/>
            <path d="M223.08,29.22c0-0.05,0-0.43,0.3-0.66c0.19-0.14,0.39-0.15,0.52-0.15s0.36,0,0.57,0.15 c0.31,0.23,0.31,0.6,0.31,0.66H223.08L223.08,29.22z M224.97,28.35c-0.36-0.42-0.94-0.42-1.06-0.42c-0.11,0-0.69,0-1.03,0.42 c-0.16,0.19-0.22,0.4-0.26,0.58c-0.05,0.23-0.06,0.44-0.06,0.67c0,0.43,0.04,0.92,0.33,1.25c0.29,0.33,0.71,0.42,1.05,0.42 c0.38,0,0.79-0.03,1.09-0.24c0.06-0.04,0.1-0.1,0.12-0.15c0.01-0.03,0.02-0.05,0.02-0.08c0-0.13-0.11-0.23-0.23-0.23 c-0.03,0-0.06,0-0.09,0.02c-0.02,0-0.03,0.02-0.08,0.04c-0.22,0.12-0.44,0.18-0.83,0.17c-0.26,0-0.51-0.07-0.68-0.28 c-0.15-0.19-0.18-0.49-0.18-0.83h1.97c0.15,0,0.27-0.12,0.27-0.27c0-0.72-0.33-1.06-0.33-1.06"/>
            <path d="M219.94,32.62h-0.06c0,0-0.04-0.02-0.04-0.04v-0.61h-0.2c0,0-0.04-0.02-0.04-0.04v-0.06 c0,0,0.02-0.04,0.04-0.04h0.53c0,0,0.04,0.02,0.04,0.04v0.06c0,0-0.02,0.04-0.04,0.04h-0.2v0.61c0,0-0.02,0.04-0.04,0.04"/>
            <path d="M222.6,32.62h-0.48c0,0-0.04-0.02-0.04-0.04v-0.7c0,0,0.02-0.04,0.04-0.04h0.06c0,0,0.04,0.02,0.04,0.04v0.61 h0.38c0,0,0.04,0.02,0.04,0.04v0.06c0,0-0.02,0.04-0.04,0.04"/>
            <path d="M223.74,32.62h-0.48c0,0-0.04-0.02-0.04-0.04v-0.7c0,0,0.02-0.04,0.04-0.04h0.48c0,0,0.04,0.02,0.04,0.04 v0.06c0,0-0.02,0.04-0.04,0.04h-0.38v0.19h0.32c0,0,0.04,0.02,0.04,0.03v0.05c0,0-0.02,0.04-0.04,0.04h-0.32v0.2h0.38 c0,0,0.04,0.02,0.04,0.04v0.06c0,0-0.02,0.04-0.04,0.04"/>
            <path d="M221.36,32.62h-0.48c0,0-0.04-0.02-0.04-0.04v-0.7c0,0,0.02-0.04,0.04-0.04h0.48c0,0,0.04,0.02,0.04,0.04 v0.06c0,0-0.02,0.04-0.04,0.04h-0.38v0.19h0.32c0,0,0.04,0.02,0.04,0.03v0.05c0,0-0.02,0.04-0.04,0.04h-0.32v0.2h0.38 c0,0,0.04,0.02,0.04,0.04v0.06c0,0-0.02,0.04-0.04,0.04"/>
            <path d="M227.57,32.62h-0.06c0,0-0.04-0.02-0.04-0.04V32.2l-0.16,0.39c0,0-0.02,0.02-0.04,0.02h-0.06 c0,0-0.03,0-0.04-0.02L227,32.2v0.38c0,0-0.02,0.04-0.04,0.04h-0.06c0,0-0.04-0.02-0.04-0.04v-0.7c0,0,0.02-0.04,0.04-0.04h0.06 c0,0,0.03,0,0.04,0.02l0.24,0.56l0.23-0.56c0,0,0.02-0.02,0.04-0.02h0.06c0,0,0.04,0.02,0.04,0.04v0.7 C227.61,32.58,227.59,32.62,227.57,32.62"/>
            <path d="M226.09,32.47c0,0-0.08,0.04-0.12,0.04s-0.09-0.01-0.12-0.04c-0.05-0.04-0.06-0.08-0.06-0.23 s0.02-0.19,0.06-0.23c0.03-0.03,0.08-0.04,0.12-0.04s0.09,0.02,0.12,0.04c0.05,0.04,0.06,0.08,0.06,0.23 S226.13,32.43,226.09,32.47 M226.19,31.92c-0.06-0.05-0.15-0.08-0.23-0.08s-0.17,0.03-0.23,0.08c-0.09,0.08-0.1,0.16-0.1,0.31 s0.01,0.24,0.1,0.31c0.06,0.05,0.14,0.08,0.23,0.08s0.17-0.03,0.23-0.08c0.09-0.08,0.1-0.16,0.1-0.31S226.28,31.99,226.19,31.92"/>
            <path d="M225.01,32.39h-0.06c0,0-0.04,0-0.04,0.01c-0.01,0.03-0.03,0.05-0.05,0.07c-0.03,0.03-0.08,0.04-0.12,0.04 s-0.09-0.02-0.12-0.04c-0.05-0.04-0.06-0.08-0.06-0.23s0.02-0.2,0.06-0.23c0.03-0.03,0.08-0.05,0.12-0.05s0.09,0.02,0.12,0.05 c0.02,0.02,0.04,0.04,0.05,0.07c0,0.02,0.03,0.02,0.04,0.02h0.06c0,0,0.02-0.02,0.03-0.03c0,0,0-0.02,0-0.03 c-0.01-0.04-0.04-0.08-0.08-0.12c-0.06-0.05-0.15-0.08-0.23-0.08s-0.17,0.03-0.23,0.08c-0.09,0.08-0.1,0.16-0.1,0.31 s0.01,0.24,0.1,0.32c0.06,0.05,0.15,0.08,0.23,0.08s0.17-0.03,0.23-0.08c0.04-0.04,0.06-0.07,0.08-0.12c0-0.01,0-0.02,0-0.03 c0,0-0.02-0.02-0.03-0.02"/>
        </g>
    </symbol>


    <symbol id="logo-footer" viewBox="0 0 80 78" fill="#fff">

        <g>
            <path d="M25.1,68.06c-0.36-0.42-0.87-0.52-1.29-0.53c-0.42,0-0.94,0.11-1.29,0.53c-0.36,0.41-0.41,0.96-0.41,1.5
				s0.05,1.15,0.41,1.57s0.87,0.53,1.29,0.53c0.42,0,0.94-0.11,1.29-0.53c0.36-0.41,0.41-1,0.41-1.57S25.46,68.48,25.1,68.06z
				 M24.64,70.7c-0.2,0.26-0.51,0.36-0.83,0.36s-0.63-0.1-0.83-0.36s-0.23-0.69-0.23-1.15s0.02-0.81,0.23-1.07
				c0.2-0.26,0.51-0.35,0.83-0.35s0.63,0.1,0.83,0.35c0.2,0.26,0.23,0.61,0.23,1.07S24.85,70.44,24.64,70.7z"/>
            <path d="M29.02,67.93c0-0.17-0.14-0.31-0.31-0.31s-0.31,0.14-0.31,0.31v2.92c0,0.05-0.04,0.1-0.08,0.12
				c-0.04,0.02-0.21,0.08-0.8,0.08c-0.29,0-0.61-0.12-0.8-0.37s-0.22-0.7-0.22-1.15v-1.6c0-0.17-0.14-0.31-0.31-0.31
				s-0.31,0.14-0.31,0.31v1.6c0,0.56,0.03,1.16,0.4,1.6c0.32,0.38,0.85,0.52,1.24,0.52c0.25,0,0.78,0.02,1.27-0.16
				c0.13-0.04,0.23-0.22,0.23-0.37L29.02,67.93L29.02,67.93z"/>
            <path d="M39.79,67.93c0-0.17-0.14-0.31-0.31-0.31s-0.31,0.14-0.31,0.31v2.92c0,0.05-0.04,0.1-0.08,0.12
				c-0.04,0.02-0.21,0.08-0.8,0.08c-0.29,0-0.61-0.12-0.8-0.37s-0.22-0.7-0.22-1.15v-1.6c0-0.17-0.14-0.31-0.31-0.31
				s-0.31,0.14-0.31,0.31v1.6c0,0.56,0.03,1.16,0.4,1.6c0.32,0.38,0.85,0.52,1.24,0.52c0.25,0,0.78,0.02,1.27-0.16
				c0.13-0.04,0.23-0.22,0.23-0.37V67.93L39.79,67.93z"/>
            <path d="M36.18,68.1c0-0.14-0.08-0.25-0.2-0.31c-0.52-0.23-1.12-0.26-1.39-0.26c-0.41,0-0.94,0.11-1.29,0.52
				c-0.36,0.41-0.41,1.03-0.41,1.59s0.05,1.07,0.41,1.48s0.87,0.52,1.29,0.52c0.39,0,0.82-0.17,0.95-0.32v0.53
				c0,0.29-0.07,0.51-0.21,0.67c-0.14,0.16-0.33,0.24-0.57,0.24c-0.16,0-0.33-0.02-0.5-0.06s-0.45-0.18-0.55-0.23
				s-0.29-0.01-0.37,0.13c-0.08,0.14-0.03,0.34,0.1,0.41c0.13,0.07,0.3,0.17,0.66,0.26c0.23,0.06,0.45,0.09,0.66,0.09
				c0.23,0,0.44-0.04,0.61-0.12c0.18-0.08,0.33-0.19,0.44-0.32c0.12-0.13,0.21-0.3,0.27-0.48s0.09-0.38,0.09-0.59v-3.76L36.18,68.1z
				 M35.54,70.36c0,0.22-0.09,0.37-0.2,0.47c-0.13,0.12-0.42,0.22-0.75,0.22s-0.63-0.09-0.83-0.35c-0.2-0.25-0.23-0.61-0.23-1.07
				s0.02-0.92,0.23-1.18c0.2-0.25,0.51-0.34,0.83-0.34c0.25,0,0.58,0.05,0.86,0.15c0.05,0.02,0.08,0.06,0.08,0.12v1.96L35.54,70.36z
				"/>
            <path d="M46.18,68.36c0,0,0.05,0,0.07,0c0.15,0,0.28-0.13,0.28-0.28c0,0,0,0,0-0.01c0-0.09-0.06-0.22-0.17-0.29
				c-0.27-0.19-0.68-0.26-1.04-0.26s-0.74,0.09-0.98,0.27c-0.24,0.18-0.36,0.44-0.36,0.76c0,0.59,0.44,1.02,1.3,1.2
				c0.38,0.08,0.8,0.28,0.8,0.62c0,0.17-0.08,0.36-0.22,0.46c-0.22,0.16-0.54,0.19-0.7,0.2c-0.21,0-0.54-0.04-0.81-0.2
				c-0.01,0-0.02-0.02-0.04-0.02c-0.04-0.02-0.09-0.04-0.14-0.04c-0.17,0-0.3,0.13-0.3,0.3c0,0.07,0.02,0.14,0.06,0.19
				c0.02,0.03,0.06,0.06,0.09,0.09c0.37,0.26,0.9,0.3,1.15,0.3c0.23,0,0.45-0.05,0.69-0.12c0.18-0.05,0.33-0.13,0.45-0.24
				c0.12-0.1,0.22-0.23,0.29-0.37c0.07-0.15,0.12-0.36,0.12-0.53c0-0.79-0.71-1.11-1.32-1.23c-0.52-0.11-0.79-0.33-0.79-0.59
				c0-0.07,0.02-0.14,0.05-0.19c0.04-0.05,0.09-0.1,0.14-0.13c0.06-0.03,0.13-0.06,0.21-0.07c0.08-0.02,0.17-0.02,0.29-0.02
				c0.18,0,0.55,0.08,0.72,0.16c0.05,0.02,0.09,0.04,0.14,0.06L46.18,68.36z"/>
            <path d="M21.26,68.05c-0.36-0.41-0.87-0.52-1.29-0.52c-0.39,0-0.82,0.17-0.95,0.32v-1.86c0-0.17-0.14-0.31-0.31-0.31
				s-0.31,0.14-0.31,0.31v5.08c0,0.15,0.09,0.28,0.22,0.33c0.52,0.21,1.09,0.25,1.36,0.25c0.41,0,0.94-0.11,1.29-0.52
				c0.36-0.41,0.41-0.98,0.41-1.54S21.63,68.46,21.26,68.05L21.26,68.05z M20.8,70.71c-0.2,0.25-0.51,0.34-0.83,0.34
				c-0.25,0-0.59-0.05-0.87-0.15l0,0c0,0-0.08-0.06-0.08-0.11v-1.98c0-0.22,0.09-0.37,0.2-0.47c0.13-0.12,0.42-0.22,0.75-0.22
				s0.63,0.09,0.83,0.34s0.23,0.67,0.23,1.12s-0.02,0.87-0.23,1.12V70.71z"/>
            <path d="M31.22,70.58c0,0-0.05,0.06-0.09,0.06c-0.05,0-0.08-0.05-0.1-0.07c-0.1-0.14-0.87-2.28-1.04-2.74
				c-0.06-0.16-0.24-0.24-0.39-0.18c-0.16,0.06-0.24,0.23-0.18,0.39l1,2.66c0.12,0.31,0.29,0.49,0.54,0.58l-0.61,1.61
				c-0.06,0.16,0.02,0.34,0.18,0.4c0.16,0.06,0.34-0.02,0.4-0.18l1.92-5.07c0.06-0.16-0.02-0.33-0.18-0.39s-0.34,0.02-0.4,0.18
				l-1.05,2.76V70.58z"/>
            <path d="M43.28,68.05c-0.45-0.52-1.16-0.52-1.31-0.52c-0.14,0-0.85,0-1.28,0.52c-0.19,0.23-0.27,0.49-0.33,0.71
				c-0.07,0.28-0.08,0.54-0.08,0.82c0,0.53,0.04,1.13,0.4,1.54s0.87,0.52,1.29,0.52c0.47,0,0.97-0.04,1.35-0.3
				c0.07-0.05,0.12-0.12,0.15-0.19c0.01-0.03,0.02-0.07,0.02-0.1c0-0.16-0.13-0.29-0.29-0.29c-0.04,0-0.07,0-0.11,0.02
				c-0.02,0-0.04,0.02-0.09,0.05c-0.28,0.15-0.54,0.23-1.02,0.21c-0.32,0-0.63-0.09-0.83-0.34c-0.19-0.24-0.22-0.61-0.22-1.02h2.43
				c0.18,0,0.33-0.15,0.33-0.33c0-0.89-0.41-1.31-0.41-1.31V68.05z M40.94,69.12c0-0.07,0-0.53,0.37-0.81
				c0.23-0.17,0.48-0.18,0.64-0.18s0.45,0,0.7,0.19c0.38,0.29,0.38,0.74,0.38,0.81h-2.09V69.12z"/>
        </g>
        <g>
            <path fill="var(--color-4)" d="M58.72,77.42c1.26,0.87,3.75-0.55,5.57-3.18s2.27-5.46,1.01-6.33c-1.26-0.87-3.69,0.48-5.51,3.11
				s-2.33,5.54-1.07,6.41V77.42z"/>
            <path fill="var(--color-5)" d="M55.57,77.42c-1.26,0.87-3.75-0.55-5.57-3.18s-2.27-5.46-1.01-6.33c1.26-0.87,3.69,0.48,5.51,3.11
				s2.33,5.54,1.07,6.41V77.42z"/>
            <ellipse fill="var(--color-6)" cx="57.15" cy="65.72" rx="5.79" ry="2.77"/>
        </g>
        <g>
            <path d="M37.07,73.31H37c0,0-0.05-0.02-0.05-0.04v-0.75h-0.24c0,0-0.05-0.02-0.05-0.04v-0.07
				c0,0,0.02-0.04,0.05-0.04h0.66c0,0,0.05,0.02,0.05,0.04v0.07c0,0-0.02,0.04-0.05,0.04h-0.24v0.75c0,0-0.02,0.04-0.05,0.04H37.07z
				"/>
            <path d="M40.36,73.31h-0.59c0,0-0.05-0.02-0.05-0.04v-0.86c0,0,0.02-0.04,0.05-0.04h0.07c0,0,0.05,0.02,0.05,0.04
				v0.75h0.47c0,0,0.05,0.02,0.05,0.04v0.07C40.41,73.27,40.39,73.31,40.36,73.31z"/>
            <path d="M41.77,73.31h-0.59c0,0-0.05-0.02-0.05-0.04v-0.86c0,0,0.02-0.04,0.05-0.04h0.59c0,0,0.05,0.02,0.05,0.04
				v0.07c0,0-0.02,0.04-0.05,0.04H41.3v0.24h0.39c0,0,0.05,0.02,0.05,0.04v0.07c0,0-0.02,0.04-0.05,0.04H41.3v0.25h0.47
				c0,0,0.05,0.02,0.05,0.04v0.07C41.82,73.27,41.8,73.31,41.77,73.31z"/>
            <path d="M38.82,73.31h-0.59c0,0-0.05-0.02-0.05-0.04v-0.86c0,0,0.02-0.04,0.05-0.04h0.59c0,0,0.05,0.02,0.05,0.04
				v0.07c0,0-0.02,0.04-0.05,0.04h-0.47v0.24h0.39c0,0,0.05,0.02,0.05,0.04v0.07c0,0-0.02,0.04-0.05,0.04h-0.39v0.25h0.47
				c0,0,0.05,0.02,0.05,0.04v0.07C38.87,73.27,38.85,73.31,38.82,73.31z"/>
            <path d="M46.48,73.31h-0.07c0,0-0.05-0.02-0.05-0.04V72.8l-0.2,0.48c0,0-0.03,0.03-0.05,0.03h-0.07
				c0,0-0.04,0-0.04-0.03l-0.21-0.49v0.47c0,0-0.02,0.04-0.05,0.04h-0.07c0,0-0.05-0.02-0.05-0.04V72.4c0,0,0.02-0.04,0.05-0.04
				h0.07c0,0,0.04,0,0.04,0.03l0.29,0.7l0.29-0.7c0,0,0.03-0.03,0.04-0.03h0.07c0,0,0.05,0.02,0.05,0.04v0.86
				c0,0-0.02,0.04-0.05,0.04L46.48,73.31z"/>
            <path d="M44.78,72.44c-0.08-0.07-0.18-0.1-0.28-0.1s-0.21,0.03-0.28,0.1c-0.11,0.09-0.12,0.19-0.12,0.39
				s0.02,0.29,0.12,0.39c0.08,0.07,0.18,0.1,0.28,0.1s0.21-0.04,0.28-0.1c0.11-0.09,0.12-0.19,0.12-0.39S44.88,72.54,44.78,72.44z
				 M44.65,73.12c0,0-0.1,0.05-0.15,0.05s-0.11-0.02-0.15-0.05c-0.06-0.05-0.08-0.1-0.08-0.29s0.02-0.24,0.08-0.29
				c0.04-0.04,0.09-0.06,0.15-0.06s0.11,0.02,0.15,0.06c0.06,0.05,0.08,0.1,0.08,0.29S44.71,73.07,44.65,73.12z"/>
            <path d="M43.33,73.02h-0.08c0,0-0.05,0-0.05,0.02c-0.01,0.04-0.03,0.06-0.06,0.09c-0.04,0.04-0.09,0.06-0.15,0.06
				s-0.11-0.02-0.15-0.06c-0.06-0.05-0.08-0.1-0.08-0.29s0.02-0.24,0.08-0.29c0.04-0.04,0.09-0.06,0.15-0.06s0.11,0.02,0.15,0.06
				c0.03,0.02,0.05,0.05,0.06,0.09c0,0.02,0.03,0.03,0.05,0.03h0.08c0,0,0.03-0.02,0.03-0.03s0-0.03,0-0.04 c-0.02-0.05-0.05-0.1-0.1-0.14c-0.08-0.07-0.18-0.1-0.28-0.1s-0.21,0.03-0.28,0.1c-0.11,0.09-0.12,0.19-0.12,0.39 s0.02,0.3,0.12,0.39c0.08,0.07,0.18,0.1,0.28,0.1s0.21-0.03,0.28-0.1c0.05-0.04,0.08-0.09,0.1-0.14c0-0.01,0-0.03,0-0.04 s-0.02-0.02-0.03-0.02V73.02z"/>
        </g>

        <g fill="#109DB9">
            <path class="st3" d="M6.27,37.36h9.43v2.21H9.68v4.03h5.6v2.21h-5.6v5.8H6.27V37.37V37.36z"/>
            <path class="st3" d="M26.37,44.8v6.8h-3.11v-2.05c-0.48,1.26-1.48,2.25-3.31,2.25c-2.03,0-3.09-1.16-3.09-2.83 c0-2.13,1.66-3.17,4.93-3.97l1.46-0.36v-0.18c0-1.04-0.88-1.91-2.35-1.91c-1.28,0-2.27,0.54-2.83,1.56l-1.06-0.34 c0.48-2.11,2.25-3.57,4.81-3.57c2.73,0,4.53,1.54,4.53,4.59L26.37,44.8z M21.29,49.45c0.96,0,1.97-0.64,1.97-2.37v-0.6l-1.28,0.16 c-1.38,0.18-2.03,0.74-2.03,1.59S20.43,49.45,21.29,49.45z"/>
            <path class="st3" d="M35.21,44.7c-0.26-1.76-0.76-2.73-1.87-2.73c-1.32,0-2.03,1.2-2.03,3.17c0,2.51,1.2,3.99,3.43,3.99 c1.2,0,2.07-0.42,2.73-1.04l0.74,0.58c-0.7,1.83-2.27,3.13-4.71,3.13c-3.27,0-5.29-2.25-5.29-5.82s2.19-5.78,5.28-5.78 c2.53,0,4.21,1.46,4.63,3.69l-2.91,0.8L35.21,44.7z"/>
            <path class="st3" d="M40.32,48.27v-6.06h-1.58v-1.8h1.58v-1.99l3.21-0.64v2.63h2.81v1.8h-2.81v5.82c0,1.06,0.58,1.5,1.42,1.5 c0.5,0,0.9-0.14,1.38-0.46l0.66,0.7c-0.8,1.38-1.85,2.03-3.37,2.03c-2.19,0-3.31-1.3-3.31-3.53H40.32z"/>
            <path class="st3" d="M47.64,46.6c0-3.69,2.45-6.4,5.76-6.4s5.28,2.15,5.28,5.38c0,3.59-2.45,6.22-5.76,6.22s-5.27-2.07-5.27-5.2 H47.64z M51.37,49.79c1.95,0,4.89-3.91,4.89-6.12c0-0.96-0.56-1.46-1.4-1.46c-2.03,0-4.87,3.87-4.87,6.14 C49.99,49.27,50.47,49.79,51.37,49.79z"/>
            <path class="st3" d="M63.92,51.6h-3.21V40.41h3.17V43c0.4-1.72,1.46-2.79,2.83-2.79c0.38,0,0.6,0.02,0.88,0.12l-0.34,3.23 c-0.34-0.14-0.74-0.22-1.28-0.22c-0.94,0-2.05,0.4-2.05,1.2V51.6z"/>
            <path class="st3" d="M71.28,55.61l1.44-3.85l-4.67-11.35h3.47l2.85,7.32l2.55-7.32h2.21l-5.67,15.2h-2.17H71.28z"/>
        </g>

        <g>
            <path class="st4" d="M33.43,20.92V31.1h-4.65v-3.06c-0.72,1.89-2.22,3.36-4.95,3.36c-3.03,0-4.62-1.74-4.62-4.23 c0-3.18,2.49-4.74,7.38-5.94l2.19-0.54v-0.27c0-1.56-1.32-2.85-3.51-2.85c-1.92,0-3.39,0.81-4.23,2.34l-1.59-0.51 c0.72-3.15,3.36-5.34,7.21-5.34c4.08,0,6.78,2.31,6.78,6.88L33.43,20.92z M25.84,27.89c1.44,0,2.94-0.96,2.94-3.54v-0.9 l-1.92,0.24c-2.07,0.27-3.03,1.11-3.03,2.37S24.55,27.89,25.84,27.89z"/>
            <path class="st4" d="M37.39,31.1V8.58h4.8V31.1H37.39z"/>
            <path class="st4" d="M55.82,14.35h4.8V31.1h-4.59v-3c-0.69,2.07-2.25,3.3-4.95,3.3c-2.97,0-4.92-1.89-4.92-5.61V14.35h4.8v10.57 c0,2.16,0.81,3.09,2.37,3.09s2.49-0.93,2.49-3.09C55.82,24.92,55.82,14.35,55.82,14.35z"/>
            <path class="st4" d="M68.4,22.96c0.39,2.82,2.1,4.47,5.07,4.47c1.8,0,3.21-0.63,4.35-1.77l1.11,0.87 c-1.02,2.85-3.48,4.86-7.21,4.86c-4.89,0-8.11-3.42-8.11-8.74c0-4.98,3.12-8.62,7.84-8.62s7.78,3.54,7.66,8.92H68.39L68.4,22.96z M68.37,20.38h5.88c-0.33-2.46-1.23-3.69-2.88-3.69S68.64,17.92,68.37,20.38z"/>
            <g>
                <path fill="#109DB9" class="st3" d="M15.69,2.34L20.16,0l1.91,4.59l-9.46,26.52H6.36l9.33-28.76L15.69,2.34z"/>
                <polygon class="st4" points="7.11,14.35 0,14.35 6.25,31.1 6.36,31.1 9.51,21.4 			"/>
            </g>
        </g>
    </symbol>
</svg>
