<?xml version="1.0" encoding="utf-8"?><!--Generator: Adobe Illustrator 25.2.3, SVG Export Plug-In . SVG Version: 6.00 Build 0)--><svg version="1.1" id="Calque_1" xmlns="http://www.w3.org/2000/svg" xmlns:xlink="http://www.w3.org/1999/xlink" x="0px" y="0px" preserveAspectRatio="none" viewBox="0 0 408 194" style="enable-background:new 0 0 408 194;" xml:space="preserve"><style type="text/css">.st0{fill:#25465F;}
	.st1{fill:#50BFDA;}
	.st2{fill:#EA5B0F;}
	2,103</style><desc>Created with Sketch.</desc><g><path class="st0" d="M118.1,134.6c-12.7-18.4-30.2-28.3-39-22.2s-5.2,26.4,7.5,44.9c12.7,18.4,29.7,27.9,38.6,21.8
		C133.9,172.9,130.8,153,118.1,134.6z"/><path class="st0" d="M254.7,134.6c-12.7-18.4-30.2-28.3-39-22.2c-8.8,6.1-5.2,26.4,7.5,44.9c12.7,18.4,29.7,27.9,38.6,21.8
		C270.5,172.9,267.4,153,254.7,134.6z"/><path class="st0" d="M390.5,134.6c-12.7-18.4-30.2-28.3-39-22.2c-8.8,6.1-5.2,26.4,7.5,44.9c12.7,18.4,29.7,27.9,38.6,21.8
		C406.3,172.9,403.2,153,390.5,134.6z"/><path class="st0" d="M49.7,37.5C37,19.1,19.5,9.2,10.7,15.3s-5.2,26.4,7.5,44.9C30.9,78.6,47.9,88.1,56.8,82
		C65.5,75.8,62.4,55.9,49.7,37.5z"/><path class="st0" d="M186.5,37.5c-12.7-18.4-30.2-28.3-39-22.2s-5.2,26.4,7.5,44.9c12.7,18.4,29.7,27.9,38.6,21.8
		C202.3,75.8,199.2,55.9,186.5,37.5z"/><path class="st1" d="M95.7,97.1c0,10.7,18.2,19.4,40.5,19.4c22.4,0,40.5-8.7,40.5-19.4s-18.2-19.4-40.5-19.4S95.7,86.4,95.7,97.1z"/><path class="st1" d="M-40.5,97.1c0,10.7,18.2,19.4,40.5,19.4c22.4,0,40.5-8.7,40.5-19.4S22.3,77.7,0,77.7S-40.5,86.4-40.5,97.1z"/><path class="st1" d="M368.1,97.1c0,10.7,18.2,19.4,40.5,19.4c22.4,0,40.5-8.7,40.5-19.4s-18.2-19.4-40.5-19.4
		C386.3,77.7,368.1,86.4,368.1,97.1z"/><path class="st1" d="M231.9,97.1c0,10.7,18.2,19.4,40.5,19.4c22.4,0,40.5-8.7,40.5-19.4s-18.2-19.4-40.5-19.4
		S231.9,86.4,231.9,97.1z"/><path class="st1" d="M163.8,0c0,10.7,18.2,19.4,40.5,19.4c22.4,0,40.5-8.7,40.5-19.4s-18.2-19.4-40.5-19.4S163.8-10.7,163.8,0z"/><path class="st1" d="M27.6,0c0,10.7,18.2,19.4,40.5,19.4c22.4,0,40.5-8.7,40.5-19.4S90.4-19.4,68.1-19.4S27.6-10.7,27.6,0z"/><path class="st1" d="M163.8,193.7c0,10.7,18.2,19.4,40.5,19.4c22.4,0,40.5-8.7,40.5-19.4s-18.2-19.4-40.5-19.4
		S163.8,183,163.8,193.7z"/><path class="st1" d="M300,0c0,10.7,18.2,19.4,40.5,19.4c22.4,0,40.5-8.7,40.5-19.4s-18.2-19.4-40.5-19.4S300-10.7,300,0z"/><path class="st1" d="M300,193.7c0,10.7,18.2,19.4,40.5,19.4c22.4,0,40.5-8.7,40.5-19.4s-18.2-19.4-40.5-19.4S300,183,300,193.7z"/><path class="st1" d="M27.6,193.7c0,10.7,18.2,19.4,40.5,19.4c22.4,0,40.5-8.7,40.5-19.4s-18.2-19.4-40.5-19.4S27.6,183,27.6,193.7z
		"/><path class="st2" d="M186.2,156.8c-12.7,18.4-30.2,28.4-39,22.3c-8.8-6.1-5.2-26.4,7.5-44.9c12.7-18.4,29.7-27.9,38.6-21.8
		C202.1,118.5,199,138.4,186.2,156.8z"/><path class="st2" d="M322,156.8c-12.7,18.4-30.2,28.4-39,22.3c-8.8-6.1-5.2-26.4,7.5-44.9c12.7-18.4,29.7-27.9,38.6-21.8
		C337.9,118.5,334.8,138.4,322,156.8z"/><path class="st2" d="M118.1,59.5c-12.7,18.4-30.2,28.4-39,22.3s-5.2-26.4,7.5-44.9C99.3,18.5,116.3,9,125.2,15.1
		C134,21.2,130.9,41.1,118.1,59.5z"/><path class="st2" d="M254.3,59.5c-12.7,18.4-30.2,28.4-39,22.3s-5.2-26.4,7.5-44.9c12.7-18.4,29.7-27.9,38.6-21.8
		C270.2,21.2,267.1,41.1,254.3,59.5z"/><path class="st0" d="M323.2,37.5c-12.7-18.4-30.2-28.3-39-22.2s-5.2,26.4,7.5,44.9c12.7,18.4,29.7,27.9,38.6,21.8
		C339,75.8,335.9,55.9,323.2,37.5z"/><path class="st2" d="M391,59.5c-12.7,18.4-30.2,28.4-39,22.3s-5.2-26.4,7.5-44.9c12.7-18.4,29.7-27.9,38.6-21.8
		C406.9,21.2,403.8,41.1,391,59.5z"/><path class="st2" d="M49.7,156.9c-12.7,18.4-30.2,28.4-39,22.3c-8.8-6.1-5.2-26.4,7.5-44.9c12.7-18.4,29.7-27.9,38.6-21.8
		C65.6,118.6,62.5,138.5,49.7,156.9z"/></g></svg>