<?xml version="1.0" encoding="utf-8"?>
<!-- Generator: Adobe Illustrator 25.2.3, SVG Export Plug-In . SVG Version: 6.00 Build 0)  -->
<svg version="1.1" id="Calque_1" xmlns="http://www.w3.org/2000/svg" xmlns:xlink="http://www.w3.org/1999/xlink" x="0px" y="0px"
	 preserveAspectRatio="none" viewBox="0 0 408 194" style="enable-background:new 0 0 408 194;" xml:space="preserve">
<style type="text/css">
	.st0{fill:#25465F;}
	.st1{fill:#FFFFFF;}
	.st2{fill:#50BFDA;}
</style>
<desc>Created with Sketch.</desc>
<g>
	<rect class="st0" width="408" height="194"/>
	<g>
		<g>
			<path class="st1" d="M254.8,182.2c-9.9,0-23.2-9.2-33.6-24.3c-13.5-19.7-16.7-40.4-7.1-47c2.7-1.9,6.2-2.5,10.2-1.8
				c9.9,1.8,21.7,11.2,30.8,24.4l0,0c13.4,19.4,16.3,39.8,6.7,46.5C259.9,181.5,257.5,182.2,254.8,182.2z M221.3,111.9
				c-2.1,0-3.8,0.5-5.3,1.5c-7.9,5.5-4.3,25.1,7.9,42.8c12,17.4,28.4,27,36.4,21.4c8-5.5,4.5-24.9-7.5-42.3
				c-8.6-12.5-19.9-21.6-28.9-23.2C223,112,222.1,111.9,221.3,111.9z"/>
		</g>
		<g>
			<path class="st1" d="M272.1,117.9c-23.6,0-41.9-9.2-41.9-20.9s18.4-20.9,41.9-20.9S314,85.4,314,97S295.7,117.9,272.1,117.9z
				 M272.1,79.2c-21.1,0-38.9,8.2-38.9,17.9s17.9,17.9,38.9,17.9S311,106.7,311,97S293.2,79.2,272.1,79.2z"/>
		</g>
		<g>
			<path class="st1" d="M289.4,182.3c-2.7,0-5.1-0.7-7.1-2.1c-9.5-6.6-6.4-27.3,7.1-47c13.2-19.1,31-28.8,40.6-22.2
				c9.6,6.7,6.6,27.1-6.7,46.5c-9.2,13.3-21,22.6-30.8,24.4C291.5,182.2,290.4,182.3,289.4,182.3z M322.8,111.9c-8.7,0-21.3,9-31,23
				c-12.2,17.7-15.8,37.3-7.9,42.8c2.1,1.4,4.8,1.9,8,1.3c9-1.6,20.3-10.7,28.9-23.2c12-17.4,15.4-36.8,7.5-42.3
				C326.8,112.5,324.9,111.9,322.8,111.9z"/>
		</g>
	</g>
	<g>
		<g>
			<path class="st1" d="M186.8,85.2c-9.9,0-23.2-9.2-33.6-24.3c-13.5-19.7-16.7-40.4-7.1-47c2.7-1.9,6.2-2.5,10.2-1.8
				c9.9,1.8,21.7,11.2,30.8,24.4l0,0c13.4,19.4,16.3,39.8,6.7,46.5C191.9,84.5,189.5,85.2,186.8,85.2z M153.3,14.9
				c-2.1,0-3.8,0.5-5.3,1.5c-7.9,5.5-4.3,25.1,7.9,42.8c12,17.4,28.4,27,36.4,21.4c8-5.5,4.5-24.9-7.5-42.3
				C176.2,25.8,165,16.7,156,15.1C155,15,154.1,14.9,153.3,14.9z"/>
		</g>
		<g>
			<path class="st1" d="M165.2,0c0,9.7,17.9,17.9,38.9,17.9S243,9.7,243,0h3c0,11.7-18.4,20.9-41.9,20.9S162.2,11.7,162.2,0H165.2z"
				/>
		</g>
		<g>
			<path class="st1" d="M221.4,85.3c-2.7,0-5.1-0.7-7.1-2.1c-9.5-6.6-6.4-27.3,7.1-47c13.2-19.1,31-28.8,40.6-22.2
				c9.6,6.7,6.6,27.1-6.7,46.5c-9.2,13.3-21,22.6-30.8,24.4C223.5,85.2,222.4,85.3,221.4,85.3z M254.8,14.9c-8.7,0-21.3,9-31,23
				c-12.2,17.7-15.8,37.3-7.9,42.8c2.1,1.4,4.8,1.9,8,1.3c9-1.6,20.3-10.7,28.9-23.2c12-17.4,15.4-36.8,7.5-42.3
				C258.8,15.5,256.9,14.9,254.8,14.9z"/>
		</g>
	</g>
	<g>
		<g>
			<path class="st1" d="M390.7,182.2c-9.9,0-23.2-9.2-33.6-24.3c-13.5-19.7-16.7-40.4-7.1-47c2.7-1.9,6.2-2.5,10.2-1.8
				c9.9,1.8,21.7,11.2,30.8,24.4l0,0c13.4,19.4,16.3,39.8,6.7,46.5C395.8,181.5,393.4,182.2,390.7,182.2z M357.2,111.9
				c-2.1,0-3.8,0.5-5.3,1.5c-7.9,5.5-4.3,25.1,7.9,42.8c12,17.4,28.4,27,36.4,21.4c8-5.5,4.5-24.9-7.5-42.3
				c-8.6-12.5-19.9-21.6-28.9-23.2C358.9,112,358,111.9,357.2,111.9z"/>
		</g>
		<g>
			<path class="st1" d="M408,79.2c-21.1,0-38.9,8.2-38.9,17.9s17.9,17.9,38.9,17.9v3c-23.6,0-41.9-9.2-41.9-20.9
				s18.4-20.9,41.9-20.9V79.2z"/>
		</g>
	</g>
	<g>
		<g>
			<path class="st1" d="M0,114.9c21.1,0,38.9-8.2,38.9-17.9S21.1,79.2,0,79.2v-3c23.6,0,41.9,9.2,41.9,20.9S23.6,117.9,0,117.9
				V114.9z"/>
		</g>
		<g>
			<path class="st1" d="M17.3,182.3c-2.7,0-5.1-0.7-7.1-2.1c-9.5-6.6-6.4-27.3,7.1-47c13.2-19.1,31-28.8,40.6-22.2
				c9.6,6.7,6.6,27.1-6.7,46.5c-9.2,13.3-21,22.6-30.8,24.4C19.4,182.2,18.3,182.3,17.3,182.3z M50.7,111.9c-8.7,0-21.3,9-31,23
				C7.6,152.6,4,172.2,11.9,177.7c2.1,1.4,4.8,1.9,8,1.3c9-1.6,20.3-10.7,28.9-23.2c12-17.4,15.4-36.8,7.5-42.3
				C54.7,112.5,52.8,111.9,50.7,111.9z"/>
		</g>
	</g>
	<g>
		<g>
			<path class="st1" d="M50.7,85.2c-9.9,0-23.2-9.2-33.6-24.3c-13.5-19.7-16.7-40.4-7.1-47c2.7-1.9,6.2-2.5,10.2-1.8
				c9.9,1.8,21.7,11.2,30.8,24.4l0,0C64.4,55.9,67.3,76.3,57.7,83C55.8,84.5,53.4,85.2,50.7,85.2z M17.2,14.9
				c-2.1,0-3.8,0.5-5.3,1.5C4,21.9,7.6,41.5,19.8,59.2c12,17.4,28.4,27,36.4,21.4c8-5.5,4.5-24.9-7.5-42.3
				c-8.6-12.5-19.9-21.6-28.9-23.2C18.9,15,18,14.9,17.2,14.9z"/>
		</g>
		<g>
			<path class="st1" d="M29.1,0c0,9.7,17.9,17.9,38.9,17.9S106.9,9.7,106.9,0h3c0,11.7-18.4,20.9-41.9,20.9S26.1,11.7,26.1,0H29.1z"
				/>
		</g>
		<g>
			<path class="st1" d="M85.3,85.3c-2.7,0-5.1-0.7-7.1-2.1c-9.5-6.6-6.4-27.3,7.1-47c13.2-19.1,31-28.8,40.6-22.2
				c9.6,6.7,6.6,27.1-6.7,46.5c-9.2,13.3-21,22.6-30.8,24.4C87.4,85.2,86.3,85.3,85.3,85.3z M118.7,14.9c-8.7,0-21.3,9-31,23
				C75.6,55.6,72,75.2,79.9,80.7c2.1,1.4,4.8,1.9,8,1.3c9-1.6,20.3-10.7,28.9-23.2c12-17.4,15.4-36.8,7.5-42.3
				C122.7,15.5,120.8,14.9,118.7,14.9z"/>
		</g>
	</g>
	<g>
		<path class="st2" d="M117.9,134.5c-12.7-18.4-30.2-28.3-38.9-22.2c-8.8,6.1-5.2,26.4,7.5,44.9c12.7,18.4,29.7,27.9,38.5,21.8
			C133.7,172.8,130.6,152.9,117.9,134.5z"/>
		<path class="st2" d="M95.6,97c0,10.7,18.2,19.4,40.4,19.4c22.4,0,40.4-8.7,40.4-19.4S158.3,77.7,136,77.7S95.6,86.4,95.6,97z"/>
		<path class="st2" d="M185.9,156.7c-12.7,18.4-30.2,28.4-38.9,22.3s-5.2-26.4,7.5-44.9c12.7-18.4,29.7-27.9,38.5-21.8
			C201.8,118.4,198.7,138.3,185.9,156.7z"/>
	</g>
	<g>
		<path class="st2" d="M321.9,37.5C309.2,19.1,291.8,9.2,283,15.3c-8.8,6.1-5.2,26.4,7.5,44.9C303.2,78.6,320.1,88.1,329,82
			C337.7,75.8,334.6,55.9,321.9,37.5z"/>
		<path class="st2" d="M299.7,0c0,10.7,18.2,19.4,40.4,19.4c22.4,0,40.4-8.7,40.4-19.4H299.7z"/>
		<path class="st2" d="M389.9,59.7C377.2,78.1,359.8,88.1,351,82c-8.8-6.1-5.2-26.4,7.5-44.9c12.7-18.4,29.7-27.9,38.5-21.8
			C405.8,21.4,402.7,41.3,389.9,59.7z"/>
	</g>
	<g>
		<g>
			<path class="st1" d="M106.9,194c0-9.7-17.9-17.9-38.9-17.9s-38.9,8.2-38.9,17.9h-3c0-11.7,18.4-20.9,41.9-20.9
				s41.9,9.2,41.9,20.9H106.9z"/>
		</g>
	</g>
	<g>
		<g>
			<path class="st1" d="M243,194c0-9.7-17.9-17.9-38.9-17.9s-38.9,8.2-38.9,17.9h-3c0-11.7,18.4-20.9,41.9-20.9S246,182.3,246,194
				H243z"/>
		</g>
	</g>
	<g>
		<path class="st2" d="M380.5,194c0-10.7-18.2-19.4-40.4-19.4s-40.4,8.7-40.4,19.4H380.5z"/>
	</g>
</g>
</svg>
