<svg version="1.1" 
	xmlns="http://www.w3.org/2000/svg"
	xmlns:xlink="http://www.w3.org/1999/xlink" x="0px" y="0px" viewBox="0 0 408 194" style="enable-background:new 0 0 408 194;" xml:space="preserve">
	<style type="text/css">
	.st0{fill:#50BFDA;}
	.st1{fill:#25465F;}
	.st2{fill:#BBC4CA;}
	.st3{fill:#FFFFFF;}
	</style>
	<rect class="st0" width="408" height="194"/>
	<path class="st1" d="M153.2,11.8c9.9,0,23.2,9.2,33.6,24.3c13.5,19.7,16.7,40.4,7.1,47c-2.7,1.9-6.2,2.5-10.2,1.8 c-9.9-1.8-21.7-11.2-30.8-24.4l0,0c-13.4-19.4-16.3-39.8-6.7-46.5C148.1,12.5,150.5,11.8,153.2,11.8z"/>
	<path class="st2" d="M135.9,76.1c23.6,0,41.9,9.2,41.9,20.9s-18.4,20.9-41.9,20.9S94,108.6,94,97S112.3,76.1,135.9,76.1z"/>
	<path class="st3" d="M118.6,11.7c2.7,0,5.1,0.7,7.1,2.1c9.5,6.6,6.4,27.3-7.1,47C105.4,79.9,87.7,89.6,78,83 c-9.6-6.7-6.6-27.1,6.7-46.5c9.2-13.3,21-22.6,30.8-24.4C116.5,11.8,117.6,11.7,118.6,11.7z"/>
	<path class="st1" d="M221.2,108.8c9.9,0,23.2,9.2,33.6,24.3c13.5,19.7,16.7,40.4,7.1,47c-2.7,1.9-6.2,2.5-10.2,1.8 c-9.9-1.8-21.7-11.2-30.8-24.4l0,0c-13.4-19.4-16.3-39.8-6.7-46.5C216.1,109.5,218.5,108.8,221.2,108.8z"/>
	<path class="st2" d="M162,194c0-11.7,18.4-20.9,41.9-20.9s41.9,9.2,41.9,20.9"/>
	<path class="st3" d="M186.6,108.7c2.7,0,5.1,0.7,7.1,2.1c9.5,6.6,6.4,27.3-7.1,47c-13.2,19.1-31,28.8-40.6,22.2 c-9.6-6.7-6.6-27.1,6.7-46.5c9.2-13.3,21-22.6,30.8-24.4C184.5,108.8,185.6,108.7,186.6,108.7z"/>
	<path class="st1" d="M17.3,11.8c9.9,0,23.2,9.2,33.6,24.3c13.5,19.7,16.7,40.4,7.1,47c-2.7,1.9-6.2,2.5-10.2,1.8 c-10-1.8-21.7-11.2-30.8-24.4l0,0C3.6,41.1,0.7,20.7,10.3,14C12.2,12.5,14.6,11.8,17.3,11.8z"/>
	<path class="st2" d="M0,76.1c23.6,0,41.9,9.2,41.9,20.9S23.6,117.8,0,117.8"/>
	<path class="st2" d="M408,117.9c-23.6,0-41.9-9.2-41.9-20.9s18.4-20.9,41.9-20.9"/>
	<path class="st3" d="M390.7,11.7c2.7,0,5.1,0.7,7.1,2.1c9.5,6.6,6.4,27.3-7.1,47c-13.2,19.1-31,28.8-40.6,22.2 c-9.6-6.7-6.6-27.1,6.7-46.5c9.2-13.3,21-22.6,30.8-24.4C388.6,11.8,389.7,11.7,390.7,11.7z"/>
	<path class="st1" d="M357.3,108.8c9.9,0,23.2,9.2,33.6,24.3c13.5,19.7,16.7,40.4,7.1,47c-2.7,1.9-6.2,2.5-10.2,1.8 c-9.9-1.8-21.7-11.2-30.8-24.4l0,0c-13.4-19.4-16.3-39.8-6.7-46.5C352.2,109.5,354.6,108.8,357.3,108.8z"/>
	<path class="st2" d="M298.1,194c0-11.7,18.4-20.9,41.9-20.9c23.6,0,41.9,9.2,41.9,20.9"/>
	<path class="st3" d="M322.7,108.7c2.7,0,5.1,0.7,7.1,2.1c9.5,6.6,6.4,27.3-7.1,47c-13.2,19.1-31,28.8-40.6,22.2 c-9.6-6.7-6.6-27.1,6.7-46.5c9.2-13.3,21-22.6,30.8-24.4C320.6,108.8,321.7,108.7,322.7,108.7z"/>
	<path class="st1" d="M290.1,59.5c12.7,18.4,30.2,28.3,38.9,22.2c8.8-6.1,5.2-26.4-7.5-44.9C308.8,18.4,291.9,8.9,283,15 C274.3,21.2,277.4,41.1,290.1,59.5z"/>
	<path class="st2" d="M312.4,97c0-10.7-18.2-19.4-40.4-19.4c-22.4,0-40.4,8.7-40.4,19.4s18.2,19.4,40.4,19.4S312.4,107.6,312.4,97z"/>
	<path class="st3" d="M222.1,37.3C234.8,18.9,252.2,8.9,261,15c8.8,6.1,5.2,26.4-7.5,44.9c-12.7,18.4-29.7,27.9-38.5,21.8 C206.2,75.6,209.3,55.7,222.1,37.3z"/>
	<path class="st1" d="M86.1,156.5c12.7,18.4,30.2,28.3,38.9,22.2c8.8-6.1,5.2-26.4-7.5-44.9C104.8,115.4,87.9,105.9,79,112 C70.3,118.2,73.4,138.1,86.1,156.5z"/>
	<path class="st2" d="M108.3,194c0-10.7-18.2-19.4-40.4-19.4c-22.4,0-40.4,8.7-40.4,19.4H108.3z"/>
	<path class="st3" d="M18.1,134.3C30.8,115.9,48.2,105.9,57,112s5.2,26.4-7.5,44.9c-12.7,18.4-29.7,27.9-38.5,21.8 S5.3,152.7,18.1,134.3z"/>
	<path class="st2" d="M381.9,0c0,11.7-18.4,20.9-41.9,20.9c-23.6,0-41.9-9.2-41.9-20.9"/>
	<path class="st2" d="M245.8,0c0,11.7-18.4,20.9-41.9,20.9S162,11.7,162,0"/>
	<path class="st2" d="M27.5,0c0,10.7,18.2,19.4,40.4,19.4s40.4-8.7,40.4-19.4H27.5z"/>
</svg>
