<?xml version="1.0" encoding="utf-8"?>
<!-- Generator: Adobe Illustrator 25.2.3, SVG Export Plug-In . SVG Version: 6.00 Build 0)  -->
<svg version="1.1" id="Calque_1" xmlns="http://www.w3.org/2000/svg" xmlns:xlink="http://www.w3.org/1999/xlink" x="0px" y="0px"
	 preserveAspectRatio="none" viewBox="0 0 408 165" style="enable-background:new 0 0 408 165;" xml:space="preserve">
<style type="text/css">
	.st0{fill:#50BFDA;}
	.st1{fill:#EA5B0F;}
	.st2{fill:#25465F;}
</style>
<g>
	<desc>Created with Sketch.</desc>
	<g>
		<g>
			<path class="st0" d="M44.5,75.5c-8.8-6.1-5.5-25.9,6.6-44.4c-0.3-0.4-0.6-0.9-0.9-1.3c-13-18.9-31-29-40-22.8
				c-9,6.3-5.3,27.1,7.7,46c11.2,16.2,25.6,25.7,35.3,24C49.9,77.7,46.9,77.2,44.5,75.5z"/>
			<path class="st1" d="M91.8,7.2c-9.1-6.3-26.5,3.5-39.6,22.3c-0.4,0.5-0.7,1.1-1.1,1.7c12.3,18.5,15.1,38.1,6.4,44.3
				c-1.3,0.9-2.7,1.4-4.3,1.7c9.4-1.4,21.7-10.6,31.3-24.5C97.6,33.8,100.8,13.4,91.8,7.2z"/>
			<path class="st2" d="M51.1,31.2C39,49.7,35.8,69.5,44.5,75.5c2.4,1.6,5.4,2.1,8.7,1.6c1.6-0.3,3-0.8,4.3-1.7
				C66.2,69.3,63.4,49.7,51.1,31.2z"/>
		</g>
	</g>
	<g>
		<g>
			<path class="st0" d="M146.7,75.5c-8.8-6.1-5.5-25.9,6.6-44.4c-0.3-0.4-0.6-0.9-0.9-1.3c-13-18.9-31-29-40-22.8
				c-9,6.3-5.3,27.1,7.7,46c11.2,16.2,25.6,25.7,35.3,24C152,77.7,149,77.2,146.7,75.5z"/>
			<path class="st1" d="M193.9,7.2c-9.1-6.3-26.5,3.5-39.6,22.3c-0.4,0.5-0.7,1.1-1.1,1.7c12.3,18.5,15.1,38.1,6.4,44.3
				c-1.3,0.9-2.7,1.4-4.3,1.7c9.4-1.4,21.7-10.6,31.3-24.5C199.8,33.8,203,13.4,193.9,7.2z"/>
			<path class="st2" d="M153.3,31.2c-12.1,18.5-15.3,38.3-6.6,44.4c2.4,1.6,5.4,2.1,8.7,1.6c1.6-0.3,3-0.8,4.3-1.7
				C168.4,69.3,165.5,49.7,153.3,31.2z"/>
		</g>
	</g>
	<g>
		<g>
			<path class="st0" d="M248.8,75.5c-8.8-6.1-5.5-25.9,6.6-44.4c-0.3-0.4-0.6-0.9-0.9-1.3c-13-18.9-31-29-40-22.8
				c-9,6.3-5.3,27.1,7.7,46c11.2,16.2,25.6,25.7,35.3,24C254.1,77.7,251.1,77.2,248.8,75.5z"/>
			<path class="st1" d="M296,7.2c-9.1-6.3-26.5,3.5-39.6,22.3c-0.4,0.5-0.7,1.1-1.1,1.7c12.3,18.5,15.1,38.1,6.4,44.3
				c-1.3,0.9-2.7,1.4-4.3,1.7c9.4-1.4,21.7-10.6,31.3-24.5C301.9,33.8,305,13.4,296,7.2z"/>
			<path class="st2" d="M255.4,31.2c-12.1,18.5-15.3,38.3-6.6,44.4c2.4,1.6,5.4,2.1,8.7,1.6c1.6-0.3,3-0.8,4.3-1.7
				C270.5,69.3,267.6,49.7,255.4,31.2z"/>
		</g>
	</g>
	<g>
		<g>
			<path class="st0" d="M350.9,75.5c-8.8-6.1-5.5-25.9,6.6-44.4c-0.3-0.4-0.6-0.9-0.9-1.3c-13-18.9-31-29-40-22.8
				c-9,6.3-5.3,27.1,7.7,46c11.2,16.2,25.6,25.7,35.3,24C356.3,77.7,353.3,77.2,350.9,75.5z"/>
			<path class="st1" d="M398.2,7.2c-9.1-6.3-26.5,3.5-39.6,22.3c-0.4,0.5-0.7,1.1-1.1,1.7c12.3,18.5,15.1,38.1,6.4,44.3
				c-1.3,0.9-2.7,1.4-4.3,1.7c9.4-1.4,21.7-10.6,31.3-24.5C404,33.8,407.2,13.4,398.2,7.2z"/>
			<path class="st2" d="M357.5,31.2c-12.1,18.5-15.3,38.3-6.6,44.4c2.4,1.6,5.4,2.1,8.7,1.6c1.6-0.3,3-0.8,4.3-1.7
				C372.6,69.3,369.8,49.7,357.5,31.2z"/>
		</g>
	</g>
	<g>
		<g>
			<path class="st0" d="M44.5,157.9c-8.8-6.1-5.5-25.9,6.6-44.4c-0.3-0.4-0.6-0.9-0.9-1.3c-13-18.9-31-29-40-22.8
				c-9,6.3-5.3,27.1,7.7,46c11.2,16.2,25.6,25.7,35.3,24C49.9,160,46.9,159.5,44.5,157.9z"/>
			<path class="st1" d="M91.8,89.5c-9.1-6.3-26.5,3.5-39.6,22.3c-0.4,0.5-0.7,1.1-1.1,1.7c12.3,18.5,15.1,38.1,6.4,44.3
				c-1.3,0.9-2.7,1.4-4.3,1.7c9.4-1.4,21.7-10.6,31.3-24.5C97.6,116.2,100.8,95.8,91.8,89.5z"/>
			<path class="st2" d="M51.1,113.5C39,132,35.8,151.8,44.5,157.9c2.4,1.6,5.4,2.1,8.7,1.6c1.6-0.3,3-0.8,4.3-1.7
				C66.2,151.6,63.4,132,51.1,113.5z"/>
		</g>
	</g>
	<g>
		<g>
			<path class="st0" d="M146.7,157.9c-8.8-6.1-5.5-25.9,6.6-44.4c-0.3-0.4-0.6-0.9-0.9-1.3c-13-18.9-31-29-40-22.8
				c-9,6.3-5.3,27.1,7.7,46c11.2,16.2,25.6,25.7,35.3,24C152,160,149,159.5,146.7,157.9z"/>
			<path class="st1" d="M193.9,89.5c-9.1-6.3-26.5,3.5-39.6,22.3c-0.4,0.5-0.7,1.1-1.1,1.7c12.3,18.5,15.1,38.1,6.4,44.3
				c-1.3,0.9-2.7,1.4-4.3,1.7c9.4-1.4,21.7-10.6,31.3-24.5C199.8,116.2,203,95.8,193.9,89.5z"/>
			<path class="st2" d="M153.3,113.5c-12.1,18.5-15.3,38.3-6.6,44.4c2.4,1.6,5.4,2.1,8.7,1.6c1.6-0.3,3-0.8,4.3-1.7
				C168.4,151.6,165.5,132,153.3,113.5z"/>
		</g>
	</g>
	<g>
		<g>
			<path class="st0" d="M248.8,157.9c-8.8-6.1-5.5-25.9,6.6-44.4c-0.3-0.4-0.6-0.9-0.9-1.3c-13-18.9-31-29-40-22.8
				c-9,6.3-5.3,27.1,7.7,46c11.2,16.2,25.6,25.7,35.3,24C254.1,160,251.1,159.5,248.8,157.9z"/>
			<path class="st1" d="M296,89.5c-9.1-6.3-26.5,3.5-39.6,22.3c-0.4,0.5-0.7,1.1-1.1,1.7c12.3,18.5,15.1,38.1,6.4,44.3
				c-1.3,0.9-2.7,1.4-4.3,1.7c9.4-1.4,21.7-10.6,31.3-24.5C301.9,116.2,305,95.8,296,89.5z"/>
			<path class="st2" d="M255.4,113.5c-12.1,18.5-15.3,38.3-6.6,44.4c2.4,1.6,5.4,2.1,8.7,1.6c1.6-0.3,3-0.8,4.3-1.7
				C270.5,151.6,267.6,132,255.4,113.5z"/>
		</g>
	</g>
	<g>
		<g>
			<path class="st0" d="M350.9,157.9c-8.8-6.1-5.5-25.9,6.6-44.4c-0.3-0.4-0.6-0.9-0.9-1.3c-13-18.9-31-29-40-22.8
				c-9,6.3-5.3,27.1,7.7,46c11.2,16.2,25.6,25.7,35.3,24C356.3,160,353.3,159.5,350.9,157.9z"/>
			<path class="st1" d="M398.2,89.5c-9.1-6.3-26.5,3.5-39.6,22.3c-0.4,0.5-0.7,1.1-1.1,1.7c12.3,18.5,15.1,38.1,6.4,44.3
				c-1.3,0.9-2.7,1.4-4.3,1.7c9.4-1.4,21.7-10.6,31.3-24.5C404,116.2,407.2,95.8,398.2,89.5z"/>
			<path class="st2" d="M357.5,113.5c-12.1,18.5-15.3,38.3-6.6,44.4c2.4,1.6,5.4,2.1,8.7,1.6c1.6-0.3,3-0.8,4.3-1.7
				C372.6,151.6,369.8,132,357.5,113.5z"/>
		</g>
	</g>
</g>
</svg>
