<?xml version="1.0" encoding="utf-8"?><!--Generator: $$$/GeneralStr/196=Adobe Illustrator 27.6.0, SVG Export Plug-In . SVG Version: 6.00 Build 0)--><svg version="1.1" id="Calque_1" xmlns="http://www.w3.org/2000/svg" xmlns:xlink="http://www.w3.org/1999/xlink" x="0px" y="0px" viewBox="0 0 40 40" style="enable-background:new 0 0 40 40;" xml:space="preserve"><g><path d="M27.4,12.9H14.7c-0.5,0-1,0.2-1.3,0.5c-0.3,0.3-0.5,0.8-0.5,1.3v12.8c0,0.5,0.2,1,0.5,1.3c0.3,0.3,0.8,0.5,1.3,0.5h12.8
		c0.2,0,0.5,0,0.7-0.1c0.2-0.1,0.4-0.2,0.6-0.4c0.2-0.2,0.3-0.4,0.4-0.6c0.1-0.2,0.1-0.5,0.1-0.7V14.7c0-0.2,0-0.5-0.1-0.7
		c-0.1-0.2-0.2-0.4-0.4-0.6c-0.2-0.2-0.4-0.3-0.6-0.4C27.9,12.9,27.6,12.9,27.4,12.9z M28,27.4c0,0.1,0,0.1,0,0.2
		c0,0-0.1,0.1-0.1,0.2c0,0-0.1,0.1-0.2,0.1c0,0-0.1,0-0.2,0H14.7c-0.1,0-0.3,0-0.4-0.1s-0.1-0.2-0.1-0.4V14.7c0-0.1,0-0.3,0.1-0.4
		s0.2-0.1,0.4-0.1h12.8c0.1,0,0.1,0,0.2,0c0,0,0.1,0,0.1,0.1c0,0,0.1,0.1,0.1,0.2c0,0,0,0.1,0,0.2C28,14.7,28,27.4,28,27.4z"/><path d="M26.4,11.4c0-0.1,0-0.3-0.2-0.4c-0.1-0.1-0.3-0.2-0.4-0.2H12.6c-0.2,0-0.5,0-0.7,0.1c-0.2,0.1-0.4,0.2-0.6,0.4
		c-0.1,0.2-0.3,0.4-0.4,0.6c-0.1,0.2-0.1,0.5-0.1,0.7v13.5c0,0.1,0,0.3,0.2,0.4c0.1,0.1,0.3,0.2,0.4,0.2c0.1,0,0.3,0,0.4-0.2
		c0.1-0.1,0.2-0.3,0.2-0.4V12.6c0-0.1,0-0.1,0-0.2c0,0,0-0.1,0.1-0.2c0.1,0,0.1-0.1,0.2-0.1c0,0,0.1,0,0.2,0h13.1
		c0.1,0,0.3,0,0.4-0.2C26.3,11.7,26.4,11.6,26.4,11.4z"/><path d="M25.1,15.4c-0.2-0.1-0.4-0.2-0.6-0.2c-0.2,0-0.4,0-0.7,0c-0.9,0.1-1.9,0.9-2.6,1.9c-0.9,1.2-1.2,2.4-0.9,3.4
		c0,0,0,0.1-0.1,0.1c-0.6,0.9-0.8,1.8-0.4,2.1c0.1,0,0.2,0.1,0.3,0.1s0.2,0,0.3,0c-0.1,0.6-0.3,1.2-0.7,1.7c-0.4,0.6-1,1.1-1.7,1.3
		c0,0-0.1,0-0.2,0s-0.1,0-0.2,0c-0.3-0.2-0.2-1.3,0.6-2.4c0.2-0.3,0.4-0.5,0.7-0.8c0.1-0.1,0.2-0.3,0.2-0.4c0-0.2,0-0.3-0.1-0.5
		c-0.1-0.1-0.3-0.2-0.4-0.2c-0.2,0-0.3,0-0.5,0.1c-0.3,0.3-0.6,0.6-0.9,1c-1.2,1.7-1.3,3.5-0.3,4.2c0.3,0.2,0.6,0.3,1,0.3
		c0.1,0,0.2,0,0.3,0c0.9-0.1,1.8-0.9,2.5-1.8c0.9-1.2,1.2-2.5,0.9-3.4l0-0.1c0.6-0.9,0.8-1.9,0.4-2.2c-0.1,0-0.2-0.1-0.3-0.1
		s-0.2,0-0.3,0c0.1-0.6,0.3-1.2,0.7-1.6c0.4-0.7,1.1-1.2,1.8-1.3c0.1,0,0.2,0,0.3,0c0.3,0.2,0.2,1.2-0.6,2.4
		c-0.2,0.3-0.4,0.6-0.7,0.8c-0.1,0.1-0.2,0.2-0.2,0.4c0,0.1,0,0.3,0.1,0.5c0.1,0.1,0.2,0.2,0.4,0.2c0.1,0,0.3,0,0.5-0.1
		c0.3-0.3,0.7-0.6,0.9-1C26,18,26.1,16.2,25.1,15.4z"/></g></svg>