<?xml version="1.0" encoding="utf-8"?><!--Generator: $$$/GeneralStr/196=Adobe Illustrator 27.6.0, SVG Export Plug-In . SVG Version: 6.00 Build 0)--><svg version="1.1" id="Calque_1" xmlns="http://www.w3.org/2000/svg" xmlns:xlink="http://www.w3.org/1999/xlink" x="0px" y="0px" viewBox="0 0 40 40" style="enable-background:new 0 0 40 40;" xml:space="preserve"><style type="text/css">.st0{fill-rule:evenodd;clip-rule:evenodd;fill:#FFFFFF;}
	.st1{fill:#FFFFFF;}</style><g><path class="st0" d="M20,16.2c-2.1,0-3.9,1.7-3.9,3.9s1.7,3.8,3.9,3.8s3.9-1.7,3.9-3.8S22.1,16.2,20,16.2z M20,22.5
		c-1.4,0-2.5-1.1-2.5-2.5c0-1.4,1.1-2.5,2.5-2.5c1.4,0,2.5,1.1,2.5,2.5C22.5,21.4,21.4,22.5,20,22.5z"/><path class="st1" d="M24.9,16c0,0.5-0.4,0.9-0.9,0.9c-0.5,0-0.9-0.4-0.9-0.9c0-0.5,0.4-0.9,0.9-0.9C24.5,15.1,24.9,15.5,24.9,16z"/><path class="st0" d="M27.5,16.9c0-0.8-0.2-1.3-0.4-1.8c-0.2-0.5-0.5-1-0.9-1.3c-0.4-0.4-0.8-0.7-1.3-0.9c-0.5-0.2-1-0.3-1.8-0.4
		c-0.8,0-1.1,0-3.1,0s-2.3,0-3.1,0s-1.3,0.2-1.8,0.4c-0.5,0.2-1,0.5-1.3,0.9c-0.4,0.4-0.7,0.8-0.9,1.3c-0.2,0.5-0.3,1-0.4,1.8
		c0,0.8,0,1.1,0,3.1s0,2.3,0,3.1c0,0.8,0.2,1.3,0.4,1.8c0.2,0.5,0.5,1,0.9,1.3c0.4,0.4,0.8,0.7,1.3,0.9c0.5,0.2,1,0.3,1.8,0.4
		c0.8,0,1.1,0,3.1,0s2.3,0,3.1,0s1.3-0.2,1.8-0.4c1-0.4,1.8-1.2,2.2-2.2c0.2-0.5,0.3-1,0.4-1.8c0-0.8,0-1.1,0-3.1
		S27.5,17.7,27.5,16.9z M26.1,23c0,0.7-0.2,1.1-0.3,1.4c-0.2,0.7-0.8,1.2-1.4,1.4c-0.3,0.1-0.7,0.2-1.4,0.3c-0.8,0-1,0-3,0
		s-2.2,0-3,0c-0.7,0-1.1-0.2-1.4-0.3c-0.3-0.1-0.6-0.3-0.9-0.6c-0.2-0.2-0.4-0.5-0.6-0.9c-0.1-0.3-0.2-0.7-0.3-1.4c0-0.8,0-1,0-3
		s0-2.2,0-3c0-0.7,0.2-1.1,0.3-1.4c0.1-0.3,0.3-0.6,0.6-0.9c0.2-0.2,0.5-0.4,0.9-0.6c0.3-0.1,0.7-0.2,1.4-0.3c0.8,0,1,0,3,0
		c2,0,2.2,0,3,0c0.7,0,1.1,0.2,1.4,0.3c0.3,0.1,0.6,0.3,0.9,0.6c0.2,0.2,0.4,0.5,0.6,0.9c0.1,0.3,0.2,0.7,0.3,1.4c0,0.8,0,1,0,3
		S26.1,22.2,26.1,23L26.1,23z"/></g></svg>