<svg width="151" height="47" viewBox="0 0 151 47" fill="none" xmlns="http://www.w3.org/2000/svg"><path d="M21.2258 16.1498C20.1032 14.8338 18.4698 14.4932 17.1382 14.4932C15.8067 14.4932 14.181 14.8415 13.0507 16.1498C11.9282 17.4659 11.7656 19.1923 11.7656 20.8799C11.7656 22.5676 11.9282 24.5262 13.0507 25.8423C14.181 27.1583 15.8067 27.499 17.1382 27.499C18.4698 27.499 20.1032 27.1506 21.2258 25.8423C22.3483 24.5262 22.5186 22.6682 22.5186 20.8799C22.5186 19.0916 22.356 17.4582 21.2258 16.1498ZM19.7703 24.5107C19.1278 25.3236 18.1601 25.6332 17.1382 25.6332C16.1163 25.6332 15.1409 25.3236 14.5061 24.5107C13.8636 23.6979 13.7862 22.3431 13.7862 20.8877C13.7862 19.4323 13.8636 18.3097 14.5061 17.4969C15.1487 16.6918 16.1163 16.3744 17.1382 16.3744C18.1601 16.3744 19.1355 16.684 19.7703 17.4969C20.4129 18.3097 20.4903 19.4323 20.4903 20.8877C20.4903 22.3431 20.4129 23.6979 19.7703 24.5107Z" fill="#009BCD" style="fill:#009BCD;fill:color(display-p3 0.0000 0.6078 0.8039);fill-opacity:1;"/><path d="M33.6435 15.7698C33.6435 15.2279 33.2022 14.7866 32.6603 14.7866C32.1184 14.7866 31.6772 15.2279 31.6772 15.7698V24.9977C31.6772 25.168 31.5533 25.3151 31.4294 25.3693C31.3056 25.4235 30.7559 25.6325 28.9057 25.6325C27.969 25.6325 26.9858 25.2609 26.382 24.4636C25.7781 23.6584 25.7007 22.2572 25.7007 20.825V15.7698C25.7007 15.2279 25.2595 14.7866 24.7175 14.7866C24.1756 14.7866 23.7344 15.2279 23.7344 15.7698V20.825C23.7344 22.5901 23.8428 24.4868 24.9885 25.8725C25.9949 27.0879 27.6671 27.5137 28.898 27.5137C29.6721 27.5137 31.3752 27.5679 32.9081 26.995C33.3339 26.8557 33.6358 26.306 33.6358 25.8338V15.7698H33.6435Z" fill="#009BCD" style="fill:#009BCD;fill:color(display-p3 0.0000 0.6078 0.8039);fill-opacity:1;"/><path d="M67.708 15.7698C67.708 15.2279 67.2667 14.7866 66.7248 14.7866C66.1829 14.7866 65.7416 15.2279 65.7416 15.7698V24.9977C65.7416 25.168 65.6178 25.3151 65.4939 25.3693C65.37 25.4235 64.8204 25.6325 62.9702 25.6325C62.0334 25.6325 61.0503 25.2609 60.4464 24.4636C59.8426 23.6584 59.7652 22.2572 59.7652 20.825V15.7698C59.7652 15.2279 59.3239 14.7866 58.782 14.7866C58.2401 14.7866 57.7988 15.2279 57.7988 15.7698V20.825C57.7988 22.5901 57.9072 24.4868 59.0529 25.8725C60.0593 27.0879 61.7315 27.5137 62.9624 27.5137C63.7366 27.5137 65.4397 27.5679 66.9725 26.995C67.3983 26.8557 67.7002 26.306 67.7002 25.8338V15.7698H67.708Z" fill="#009BCD" style="fill:#009BCD;fill:color(display-p3 0.0000 0.6078 0.8039);fill-opacity:1;"/><path d="M56.2808 16.2815C56.2808 15.8479 56.0253 15.4841 55.6615 15.3138C54.0048 14.6015 52.1158 14.4932 51.272 14.4932C49.9792 14.4932 48.3148 14.8338 47.1845 16.1266C46.062 17.4195 45.8994 19.4013 45.8994 21.1664C45.8994 22.9314 46.062 24.5572 47.1845 25.85C48.3148 27.1428 49.9405 27.4989 51.272 27.4989C52.5029 27.4989 53.8577 26.9493 54.2912 26.4771V28.1647C54.2912 29.0705 54.0744 29.7827 53.6409 30.2859C53.2074 30.7814 52.6036 31.0368 51.8294 31.0368C51.3185 31.0368 50.792 30.9672 50.2579 30.8356C49.7315 30.7039 48.8334 30.2782 48.5083 30.1233C48.1909 29.9685 47.6025 30.0924 47.3316 30.5182C47.0684 30.9517 47.2464 31.5942 47.6645 31.8265C48.0825 32.0587 48.6244 32.3761 49.7392 32.6626C50.4592 32.8484 51.1559 32.9335 51.8294 32.9335C52.5571 32.9335 53.2151 32.8174 53.7725 32.5697C54.3299 32.3219 54.8021 31.9813 55.1737 31.5633C55.5376 31.1375 55.824 30.6265 56.0098 30.0382C56.2034 29.4576 56.2963 28.8228 56.2963 28.1647V16.2737L56.2808 16.2815ZM54.2602 23.4269C54.2602 24.1391 53.9661 24.6114 53.6254 24.9288C53.2151 25.3159 52.2939 25.6332 51.2643 25.6332C50.2347 25.6332 49.267 25.3391 48.6322 24.5417C47.9896 23.7366 47.9122 22.6063 47.9122 21.1741C47.9122 19.7419 47.9896 18.2556 48.6322 17.4504C49.2747 16.6531 50.2579 16.3666 51.2643 16.3666C52.0462 16.3666 53.1068 16.5369 53.997 16.8466C54.1519 16.9008 54.2602 17.0479 54.2602 17.2182V23.4269Z" fill="#009BCD" style="fill:#009BCD;fill:color(display-p3 0.0000 0.6078 0.8039);fill-opacity:1;"/><path d="M87.8969 17.117C87.9665 17.1325 88.0362 17.148 88.1136 17.148C88.6013 17.148 88.9961 16.7532 88.9961 16.2655V16.2268C88.9961 15.9403 88.8181 15.5223 88.4697 15.3055C87.6104 14.7172 86.3098 14.4927 85.1718 14.4927C84.0338 14.4927 82.8339 14.7791 82.083 15.3443C81.3243 15.9171 80.945 16.73 80.945 17.7441C80.945 19.6176 82.3307 20.9801 85.0635 21.5452C86.2711 21.8007 87.5872 22.42 87.5872 23.4961C87.5872 24.038 87.324 24.6264 86.8905 24.9515C86.186 25.4625 85.1718 25.5631 84.6686 25.5708C84.0106 25.5708 82.9732 25.4315 82.0985 24.9438C82.0598 24.9205 82.021 24.8973 81.9823 24.8741C81.8507 24.8044 81.6959 24.758 81.5333 24.758C81.0147 24.758 80.5889 25.1837 80.5889 25.7102C80.5889 25.9347 80.6663 26.136 80.7979 26.2985C80.8753 26.3992 80.9682 26.4998 81.0921 26.5695C82.2688 27.3823 83.9487 27.5062 84.7151 27.5062C85.4351 27.5062 86.1395 27.3591 86.9059 27.1191C87.4633 26.9488 87.9433 26.6933 88.3381 26.3682C88.7329 26.0431 89.0426 25.6482 89.2671 25.1915C89.4916 24.7347 89.6464 24.0535 89.6464 23.4961C89.6464 20.9878 87.4169 19.9892 85.4738 19.6098C83.8171 19.2615 82.981 18.557 82.981 17.7441C82.981 17.5119 83.0352 17.3106 83.1513 17.1403C83.2674 16.97 83.4223 16.8306 83.6003 16.73C83.7861 16.6293 84.0106 16.5519 84.2506 16.5055C84.4983 16.459 84.777 16.4358 85.1796 16.4358C85.737 16.4358 86.9292 16.6913 87.4401 16.9467C87.5872 17.0164 87.7343 17.0861 87.8969 17.1248" fill="#009BCD" style="fill:#009BCD;fill:color(display-p3 0.0000 0.6078 0.8039);fill-opacity:1;"/><path d="M9.10402 16.1263C7.9815 14.8335 6.35578 14.4851 5.0165 14.4851C3.7856 14.4851 2.43084 15.0271 1.99731 15.4915V9.60022C1.99731 9.05057 1.5483 8.60156 0.998655 8.60156C0.449008 8.60156 0 9.05057 0 9.60022V25.6794C0 26.1517 0.294182 26.562 0.712223 26.7168C2.34568 27.3903 4.17267 27.4987 5.00876 27.4987C6.30933 27.4987 7.97375 27.1658 9.09627 25.8652C10.2188 24.5724 10.3891 22.7608 10.3891 20.988C10.3891 19.2152 10.2265 17.4114 9.09627 16.1186M7.64861 24.5569C7.00607 25.3543 6.0229 25.6329 5.0165 25.6329C4.23461 25.6329 3.15854 25.4704 2.26826 25.153C2.12892 25.1065 2.02053 24.9749 2.02053 24.8123V18.5572C2.02053 17.8527 2.32245 17.3727 2.65534 17.0631C3.07338 16.676 3.98688 16.3741 5.0165 16.3741C6.04612 16.3741 7.01381 16.6528 7.64861 17.4502C8.29116 18.2553 8.36858 19.5713 8.36858 21.0035C8.36858 22.4357 8.29116 23.7518 7.64861 24.5569Z" fill="#009BCD" style="fill:#009BCD;fill:color(display-p3 0.0000 0.6078 0.8039);fill-opacity:1;"/><path d="M40.6031 24.1309C40.5489 24.2471 40.4328 24.3245 40.3089 24.3245C40.1541 24.3245 40.0457 24.1619 39.9993 24.1C39.6896 23.6509 37.2433 16.8926 36.7169 15.4217C36.5311 14.9262 35.9737 14.663 35.4705 14.8488C34.9751 15.0346 34.7118 15.592 34.8976 16.0875L38.0639 24.5025C38.4355 25.5012 38.9774 26.0586 39.7593 26.345L37.8317 31.4544C37.6381 31.9576 37.8936 32.5228 38.3968 32.7163C38.9 32.9098 39.4651 32.6544 39.6509 32.1512L45.728 16.1029C45.9138 15.6075 45.6583 15.0501 45.1706 14.8566C44.6752 14.663 44.11 14.9185 43.9165 15.4217L40.5954 24.1387L40.6031 24.1309Z" fill="#009BCD" style="fill:#009BCD;fill:color(display-p3 0.0000 0.6078 0.8039);fill-opacity:1;"/><path d="M78.7229 16.1339C77.3062 14.4772 75.0379 14.4927 74.5734 14.4927C74.1399 14.4927 71.8949 14.5082 70.5401 16.1339C69.9208 16.8693 69.6808 17.6745 69.5105 18.3867C69.3015 19.2847 69.2705 20.1053 69.2705 20.9956C69.2705 22.66 69.4099 24.5722 70.5401 25.8728C71.6626 27.1733 73.2961 27.514 74.6276 27.514C76.0985 27.514 77.701 27.3901 78.8777 26.5772C79.11 26.4301 79.2648 26.1979 79.3422 25.9811C79.3809 25.8805 79.4042 25.7721 79.4042 25.656C79.4042 25.1528 78.9938 24.7425 78.4906 24.7425C78.3668 24.7425 78.2584 24.7735 78.1578 24.8044C78.0958 24.8276 78.0262 24.8741 77.8636 24.9592C76.9888 25.447 76.1605 25.6715 74.6276 25.6328C73.598 25.6328 72.6303 25.3541 71.9955 24.5567C71.3994 23.8135 71.3065 22.629 71.2988 21.3207H78.9706C79.5435 21.3207 80.008 20.8562 80.008 20.2834C80.008 17.4809 78.7152 16.1494 78.7152 16.1494M71.3452 19.5247C71.3452 19.3157 71.3143 17.8525 72.5142 16.9545C73.2419 16.4048 74.047 16.3739 74.5347 16.3739C75.0225 16.3739 75.9437 16.3507 76.7566 16.97C77.9565 17.8835 77.9642 19.3234 77.9642 19.5247H71.353H71.3452Z" fill="#009BCD" style="fill:#009BCD;fill:color(display-p3 0.0000 0.6078 0.8039);fill-opacity:1;"/><path d="M127.556 45.7601C131.543 48.5084 139.432 44.0106 145.168 35.6961C150.912 27.3817 152.337 18.417 148.35 15.661C144.363 12.9128 136.676 17.1784 130.931 25.4928C125.187 33.8072 123.569 43.0042 127.556 45.7524" fill="#EB5B00" style="fill:#EB5B00;fill:color(display-p3 0.9216 0.3569 0.0000);fill-opacity:1;"/><path d="M117.615 45.7597C113.628 48.5079 105.74 44.0101 100.003 35.6956C94.259 27.3812 92.8346 18.4165 96.8215 15.6606C100.808 12.9123 108.496 17.1779 114.24 25.4923C119.984 33.8067 121.602 43.0037 117.615 45.7519" fill="#0053A5" style="fill:#0053A5;fill:color(display-p3 0.0000 0.3255 0.6471);fill-opacity:1;"/><path d="M140.901 8.75568C140.901 3.91722 132.703 0 122.585 0C112.467 0 104.269 3.91722 104.269 8.75568C104.269 13.5941 112.467 17.5114 122.585 17.5114C132.703 17.5114 140.901 13.5941 140.901 8.75568Z" fill="#009BCD" style="fill:#009BCD;fill:color(display-p3 0.0000 0.6078 0.8039);fill-opacity:1;"/><path d="M59.1053 32.7624H58.873C58.7879 32.7624 58.7182 32.7005 58.7182 32.6231V30.2542H57.9595C57.8744 30.2542 57.8047 30.1922 57.8047 30.1148V29.8903C57.8047 29.8129 57.8744 29.751 57.9595 29.751H60.0342C60.1194 29.751 60.1891 29.8129 60.1891 29.8903V30.1148C60.1891 30.1922 60.1194 30.2542 60.0342 30.2542H59.2678V32.6231C59.2678 32.7005 59.1982 32.7624 59.113 32.7624" fill="#009BCD" style="fill:#009BCD;fill:color(display-p3 0.0000 0.6078 0.8039);fill-opacity:1;"/><path d="M69.4951 32.7625H67.6294C67.5443 32.7625 67.4746 32.7006 67.4746 32.6231V29.8981C67.4746 29.8207 67.5443 29.7588 67.6294 29.7588H67.8617C67.9468 29.7588 68.0165 29.8207 68.0165 29.8981V32.267H69.4951C69.5803 32.267 69.65 32.329 69.65 32.4064V32.6231C69.65 32.7006 69.5803 32.7625 69.4951 32.7625Z" fill="#009BCD" style="fill:#009BCD;fill:color(display-p3 0.0000 0.6078 0.8039);fill-opacity:1;"/><path d="M73.9463 32.7625H72.0806C71.9955 32.7625 71.9258 32.7006 71.9258 32.6231V29.8981C71.9258 29.8207 71.9955 29.7588 72.0806 29.7588H73.9463C74.0315 29.7588 74.1011 29.8207 74.1011 29.8981V30.1226C74.1011 30.2001 74.0315 30.262 73.9463 30.262H72.4677V31.0129H73.7063C73.7915 31.0129 73.8612 31.0748 73.8612 31.1523V31.3613C73.8612 31.4387 73.7915 31.5006 73.7063 31.5006H72.4677V32.2748H73.9463C74.0315 32.2748 74.1011 32.3367 74.1011 32.4141V32.6309C74.1011 32.7083 74.0315 32.7702 73.9463 32.7702" fill="#009BCD" style="fill:#009BCD;fill:color(display-p3 0.0000 0.6078 0.8039);fill-opacity:1;"/><path d="M64.6407 32.7625H62.7749C62.6898 32.7625 62.6201 32.7006 62.6201 32.6231V29.8981C62.6201 29.8207 62.6898 29.7588 62.7749 29.7588H64.6407C64.7258 29.7588 64.7955 29.8207 64.7955 29.8981V30.1226C64.7955 30.2001 64.7258 30.262 64.6407 30.262H63.162V31.0129H64.4007C64.4858 31.0129 64.5555 31.0748 64.5555 31.1523V31.3613C64.5555 31.4387 64.4858 31.5006 64.4007 31.5006H63.162V32.2748H64.6407C64.7258 32.2748 64.7955 32.3367 64.7955 32.4141V32.6309C64.7955 32.7083 64.7258 32.7702 64.6407 32.7702" fill="#009BCD" style="fill:#009BCD;fill:color(display-p3 0.0000 0.6078 0.8039);fill-opacity:1;"/><path d="M88.8479 32.7625H88.6157C88.5305 32.7625 88.4608 32.7006 88.4608 32.6231V31.1523L87.826 32.6773C87.8028 32.7238 87.7409 32.7548 87.679 32.7548H87.4467C87.3848 32.7548 87.3306 32.7238 87.3074 32.6773L86.6493 31.1368V32.6231C86.6493 32.7006 86.5797 32.7625 86.4945 32.7625H86.2623C86.1771 32.7625 86.1074 32.7006 86.1074 32.6231V29.8981C86.1074 29.8207 86.1771 29.7588 86.2623 29.7588H86.4945C86.5564 29.7588 86.6106 29.7897 86.6339 29.8439L87.5628 32.0425L88.4686 29.8439C88.4918 29.7897 88.5537 29.7588 88.6079 29.7588H88.8402C88.9253 29.7588 88.995 29.8207 88.995 29.8981V32.6231C88.995 32.7006 88.9253 32.7625 88.8402 32.7625" fill="#009BCD" style="fill:#009BCD;fill:color(display-p3 0.0000 0.6078 0.8039);fill-opacity:1;"/><path d="M83.4839 30.0293C83.2439 29.8203 82.9188 29.7119 82.5859 29.7119C82.253 29.7119 81.9278 29.8203 81.6879 30.0293C81.3472 30.3312 81.3008 30.6409 81.3008 31.2602C81.3008 31.8795 81.355 32.1892 81.6879 32.4911C81.9278 32.7001 82.2452 32.8163 82.5859 32.8163C82.9265 32.8163 83.2439 32.7001 83.4839 32.4911C83.8245 32.1892 83.871 31.8795 83.871 31.2602C83.871 30.6409 83.8168 30.3312 83.4839 30.0293ZM83.0736 32.1737C82.9497 32.2821 82.7717 32.344 82.5936 32.344C82.4156 32.344 82.2375 32.2898 82.1136 32.1737C81.9356 32.0189 81.8659 31.8486 81.8659 31.2602C81.8659 30.6719 81.9356 30.5016 82.1136 30.3467C82.2375 30.2383 82.4078 30.1764 82.5936 30.1764C82.7794 30.1764 82.9497 30.2383 83.0736 30.3467C83.2516 30.5016 83.3213 30.6719 83.3213 31.2602C83.3213 31.8486 83.2516 32.0189 83.0736 32.1737Z" fill="#009BCD" style="fill:#009BCD;fill:color(display-p3 0.0000 0.6078 0.8039);fill-opacity:1;"/><path d="M78.8767 31.8564L78.6367 31.8177C78.5671 31.8022 78.4896 31.8409 78.4664 31.9028C78.4277 32.0267 78.3658 32.1041 78.2806 32.1816C78.1567 32.2977 77.9864 32.3596 77.8006 32.3596C77.6148 32.3596 77.4445 32.2977 77.3207 32.1816C77.1426 32.0267 77.0729 31.8564 77.0729 31.268C77.0729 30.6797 77.1426 30.5094 77.3207 30.3545C77.4445 30.2462 77.6148 30.1842 77.8006 30.1842C77.9864 30.1842 78.1567 30.2462 78.2806 30.3545C78.3658 30.4242 78.4277 30.5094 78.4664 30.6332C78.4896 30.6952 78.5671 30.7339 78.6367 30.7184L78.8767 30.6797C78.9232 30.6797 78.9619 30.6487 78.9851 30.61C79.0083 30.5713 79.0161 30.5326 79.0006 30.4862C78.9464 30.3158 78.8535 30.1765 78.6909 30.0371C78.4509 29.8281 78.1258 29.7197 77.7929 29.7197C77.46 29.7197 77.1349 29.8204 76.8949 30.0371C76.5543 30.3391 76.5078 30.6487 76.5078 31.268C76.5078 31.8874 76.562 32.2048 76.8949 32.499C77.1349 32.708 77.46 32.8163 77.7929 32.8163C78.1258 32.8163 78.4509 32.7157 78.6909 32.499C78.8458 32.3596 78.9386 32.2203 79.0006 32.0499C79.0161 32.0112 79.0161 31.9648 78.9851 31.9261C78.9619 31.8874 78.9232 31.8641 78.8767 31.8564Z" fill="#009BCD" style="fill:#009BCD;fill:color(display-p3 0.0000 0.6078 0.8039);fill-opacity:1;"/></svg>